<?xml version="1.0" encoding="utf-8"?>
<!-- Generator: Adobe Illustrator 18.0.0, SVG Export Plug-In . SVG Version: 6.00 Build 0)  -->
<!DOCTYPE svg PUBLIC "-//W3C//DTD SVG 1.1//EN" "http://www.w3.org/Graphics/SVG/1.1/DTD/svg11.dtd">
<svg version="1.1" id="device" xmlns="http://www.w3.org/2000/svg" xmlns:xlink="http://www.w3.org/1999/xlink" x="0px" y="0px"
	 viewBox="0 0 300 210" enable-background="new 0 0 300 210" xml:space="preserve">
<g>
	<rect x="-0.1" y="0" fill="#6CAEAB" width="300.1" height="210"/>
	<g>
		<g>
			<rect x="108.9" y="42" fill="#6CAEAB" width="82.1" height="119.4"/>
		</g>
		<g>
			<g>
				<path fill="#6CAEAB" d="M197.7,38.8c0-4.5-3.4-8.1-7.6-8.1l-80.1,0c-4.2,0-7.6,3.6-7.6,8.1l0,132.5c0,4.5,3.4,8.1,7.6,8.1
					l80.1,0c4.2,0,7.6-3.6,7.6-8.1L197.7,38.8z M108.9,161.5l0-119.4l82.1,0l0,119.4L108.9,161.5z"/>
			</g>
			<g>
				<g>
					<path fill="#43423C" d="M122.8,180.4c-0.6,0-1-0.4-1-1c0-0.6,0.4-1,1-1l5,0c0.6,0,1,0.4,1,1c0,0.6-0.4,1-1,1L122.8,180.4z
						 M117.7,180.4h-5c-0.6,0-1-0.4-1-1s0.4-1,1-1h5c0.6,0,1,0.4,1,1S118.3,180.4,117.7,180.4z M148,180.4h-5c-0.6,0-1-0.4-1-1
						s0.4-1,1-1h5c0.6,0,1,0.4,1,1S148.6,180.4,148,180.4z M137.9,180.4h-5c-0.6,0-1-0.4-1-1s0.4-1,1-1h5c0.6,0,1,0.4,1,1
						S138.5,180.4,137.9,180.4z M173.3,180.4c-0.6,0-1-0.4-1-1c0-0.6,0.4-1,1-1l5,0c0.6,0,1,0.4,1,1c0,0.6-0.4,1-1,1L173.3,180.4z
						 M168.2,180.4h-5c-0.6,0-1-0.4-1-1s0.4-1,1-1h5c0.6,0,1,0.4,1,1S168.8,180.4,168.2,180.4z M158.1,180.4h-5c-0.6,0-1-0.4-1-1
						s0.4-1,1-1h5c0.6,0,1,0.4,1,1S158.7,180.4,158.1,180.4z M188.4,180.4h-5c-0.6,0-1-0.4-1-1s0.4-1,1-1h5c0.6,0,1,0.4,1,1
						S189,180.4,188.4,180.4z M107.7,180c-0.1,0-0.2,0-0.3-0.1c-1.8-0.6-3.3-1.8-4.4-3.4c-0.3-0.5-0.2-1.1,0.3-1.4s1.1-0.2,1.4,0.3
						c0.8,1.3,2,2.2,3.4,2.6c0.5,0.2,0.8,0.7,0.6,1.3C108.5,179.7,108.1,180,107.7,180z M193.3,179.6c-0.4,0-0.7-0.2-0.9-0.5
						c-0.3-0.5-0.1-1.1,0.4-1.3c1.3-0.7,2.4-1.8,3-3.1c0.2-0.5,0.8-0.7,1.3-0.5c0.5,0.2,0.7,0.8,0.5,1.3c-0.9,1.7-2.2,3.2-3.9,4
						C193.6,179.5,193.5,179.6,193.3,179.6z M102.3,172.2c-0.6,0-1-0.4-1-1v-5c0-0.6,0.4-1,1-1s1,0.4,1,1v5
						C103.3,171.7,102.9,172.2,102.3,172.2z M197.7,171.1c-0.6,0-1-0.4-1-1v-5c0-0.6,0.4-1,1-1s1,0.4,1,1v5
						C198.7,170.7,198.2,171.1,197.7,171.1z M102.3,162.1c-0.6,0-1-0.4-1-1l0-5c0-0.6,0.4-1,1-1c0.6,0,1,0.4,1,1l0,5
						C103.3,161.7,102.9,162.1,102.3,162.1z M197.7,161c-0.6,0-1-0.4-1-1l0-5c0-0.6,0.4-1,1-1c0.6,0,1,0.4,1,1l0,5
						C198.7,160.6,198.2,161,197.7,161z M102.3,152c-0.6,0-1-0.4-1-1v-5c0-0.6,0.4-1,1-1s1,0.4,1,1v5
						C103.3,151.6,102.9,152,102.3,152z M197.7,150.9c-0.6,0-1-0.4-1-1v-5c0-0.6,0.4-1,1-1s1,0.4,1,1v5
						C198.7,150.5,198.2,150.9,197.7,150.9z M102.3,141.9c-0.6,0-1-0.4-1-1v-5c0-0.6,0.4-1,1-1s1,0.4,1,1v5
						C103.3,141.5,102.9,141.9,102.3,141.9z M197.7,140.8c-0.6,0-1-0.4-1-1v-5c0-0.6,0.4-1,1-1s1,0.4,1,1v5
						C198.7,140.4,198.2,140.8,197.7,140.8z M102.3,131.8c-0.6,0-1-0.4-1-1v-5c0-0.6,0.4-1,1-1s1,0.4,1,1v5
						C103.3,131.4,102.9,131.8,102.3,131.8z M197.7,130.7c-0.6,0-1-0.4-1-1v-5c0-0.6,0.4-1,1-1s1,0.4,1,1v5
						C198.7,130.3,198.2,130.7,197.7,130.7z M102.3,121.7c-0.6,0-1-0.4-1-1v-5c0-0.6,0.4-1,1-1s1,0.4,1,1v5
						C103.3,121.3,102.9,121.7,102.3,121.7z M197.7,120.6c-0.6,0-1-0.4-1-1v-5c0-0.6,0.4-1,1-1s1,0.4,1,1v5
						C198.7,120.2,198.2,120.6,197.7,120.6z M102.3,111.6c-0.6,0-1-0.4-1-1v-5c0-0.6,0.4-1,1-1s1,0.4,1,1v5
						C103.3,111.2,102.9,111.6,102.3,111.6z M197.7,110.5c-0.6,0-1-0.4-1-1l0-5c0-0.6,0.4-1,1-1c0.6,0,1,0.4,1,1l0,5
						C198.7,110.1,198.2,110.5,197.7,110.5z M102.3,101.5c-0.6,0-1-0.4-1-1v-5c0-0.6,0.4-1,1-1s1,0.4,1,1v5
						C103.3,101.1,102.9,101.5,102.3,101.5z M197.7,100.4c-0.6,0-1-0.4-1-1v-5c0-0.6,0.4-1,1-1s1,0.4,1,1v5
						C198.7,100,198.2,100.4,197.7,100.4z M102.3,91.4c-0.6,0-1-0.4-1-1v-5c0-0.6,0.4-1,1-1s1,0.4,1,1v5
						C103.3,91,102.9,91.4,102.3,91.4z M197.7,90.3c-0.6,0-1-0.4-1-1v-5c0-0.6,0.4-1,1-1s1,0.4,1,1v5
						C198.7,89.9,198.2,90.3,197.7,90.3z M102.3,81.3c-0.6,0-1-0.4-1-1l0-5c0-0.6,0.4-1,1-1c0.6,0,1,0.4,1,1l0,5
						C103.3,80.9,102.9,81.3,102.3,81.3z M197.7,80.2c-0.6,0-1-0.4-1-1l0-5c0-0.6,0.4-1,1-1c0.6,0,1,0.4,1,1l0,5
						C198.7,79.8,198.2,80.2,197.7,80.2z M102.3,71.2c-0.6,0-1-0.4-1-1v-5c0-0.6,0.4-1,1-1s1,0.4,1,1v5
						C103.3,70.8,102.9,71.2,102.3,71.2z M197.7,70.1c-0.6,0-1-0.4-1-1v-5c0-0.6,0.4-1,1-1s1,0.4,1,1v5
						C198.7,69.7,198.2,70.1,197.7,70.1z M102.3,61.1c-0.6,0-1-0.4-1-1v-5c0-0.6,0.4-1,1-1s1,0.4,1,1v5
						C103.3,60.7,102.9,61.1,102.3,61.1z M197.7,60c-0.6,0-1-0.4-1-1v-5c0-0.6,0.4-1,1-1s1,0.4,1,1v5C198.7,59.6,198.2,60,197.7,60z
						 M102.3,51c-0.6,0-1-0.4-1-1v-5c0-0.6,0.4-1,1-1s1,0.4,1,1v5C103.3,50.6,102.9,51,102.3,51z M197.7,49.9c-0.6,0-1-0.4-1-1v-5
						c0-0.6,0.4-1,1-1s1,0.4,1,1v5C198.7,49.5,198.2,49.9,197.7,49.9z M102.3,40.9c-0.6,0-1-0.4-1-1v-1.2c0-1.5,0.3-2.9,1-4.2
						c0.2-0.5,0.8-0.7,1.3-0.5c0.5,0.2,0.7,0.8,0.5,1.3c-0.5,1-0.8,2.2-0.8,3.3v1.2C103.3,40.5,102.9,40.9,102.3,40.9z M197.7,39.8
						c-0.6,0-1-0.4-1-1v-0.1c0-1.5-0.4-3-1.3-4.2c-0.3-0.5-0.2-1.1,0.3-1.4c0.5-0.3,1.1-0.2,1.4,0.3c1.1,1.6,1.6,3.4,1.6,5.3
						C198.7,39.3,198.2,39.8,197.7,39.8z M106.6,32.4c-0.4,0-0.7-0.2-0.9-0.5c-0.3-0.5-0.1-1.1,0.4-1.3c1.2-0.6,2.4-0.9,3.8-0.9h1.6
						c0.6,0,1,0.4,1,1s-0.4,1-1,1h-1.6c-1,0-2,0.2-2.8,0.7C106.9,32.4,106.8,32.4,106.6,32.4z M192.3,32c-0.1,0-0.2,0-0.3-0.1
						c-0.6-0.2-1.3-0.3-1.9-0.3c0,0,0,0,0,0h-2.8c-0.6,0-1-0.4-1-1s0.4-1,1-1h2.8c0,0,0,0,0,0c0.9,0,1.7,0.1,2.5,0.4
						c0.5,0.2,0.8,0.7,0.6,1.3C193.1,31.7,192.7,32,192.3,32z M116.6,31.6c-0.6,0-1-0.4-1-1s0.4-1,1-1l5,0c0.6,0,1,0.4,1,1
						s-0.4,1-1,1L116.6,31.6z M126.7,31.6c-0.6,0-1-0.4-1-1s0.4-1,1-1l5,0c0.6,0,1,0.4,1,1s-0.4,1-1,1L126.7,31.6z M141.8,31.6h-5
						c-0.6,0-1-0.4-1-1s0.4-1,1-1h5c0.6,0,1,0.4,1,1S142.4,31.6,141.8,31.6z M151.9,31.6h-5c-0.6,0-1-0.4-1-1s0.4-1,1-1h5
						c0.6,0,1,0.4,1,1S152.5,31.6,151.9,31.6z M167.1,31.6c-0.6,0-1-0.4-1-1s0.4-1,1-1l5,0c0.6,0,1,0.4,1,1s-0.4,1-1,1L167.1,31.6z
						 M162,31.6h-5c-0.6,0-1-0.4-1-1s0.4-1,1-1h5c0.6,0,1,0.4,1,1S162.6,31.6,162,31.6z M182.2,31.6h-5c-0.6,0-1-0.4-1-1s0.4-1,1-1
						h5c0.6,0,1,0.4,1,1S182.8,31.6,182.2,31.6z"/>
				</g>
				<g>
					<g>
						<path fill="#43423C" d="M111.4,162.5h-2.5c-0.6,0-1-0.4-1-1V159c0-0.6,0.4-1,1-1s1,0.4,1,1v1.5h1.5c0.6,0,1,0.4,1,1
							S112,162.5,111.4,162.5z"/>
					</g>
					<g>
						<path fill="#43423C" d="M108.9,155c-0.6,0-1-0.4-1-1v-5c0-0.6,0.4-1,1-1s1,0.4,1,1v5C109.9,154.5,109.5,155,108.9,155z
							 M108.9,145c-0.6,0-1-0.4-1-1l0-5c0-0.6,0.4-1,1-1c0.6,0,1,0.4,1,1l0,5C109.9,144.6,109.5,145,108.9,145z M108.9,135.1
							c-0.6,0-1-0.4-1-1v-5c0-0.6,0.4-1,1-1s1,0.4,1,1v5C109.9,134.6,109.5,135.1,108.9,135.1z M108.9,125.1c-0.6,0-1-0.4-1-1v-5
							c0-0.6,0.4-1,1-1s1,0.4,1,1v5C109.9,124.7,109.5,125.1,108.9,125.1z M108.9,115.2c-0.6,0-1-0.4-1-1l0-5c0-0.6,0.4-1,1-1
							c0.6,0,1,0.4,1,1l0,5C109.9,114.7,109.5,115.2,108.9,115.2z M108.9,105.2c-0.6,0-1-0.4-1-1v-5c0-0.6,0.4-1,1-1s1,0.4,1,1v5
							C109.9,104.8,109.5,105.2,108.9,105.2z M108.9,95.3c-0.6,0-1-0.4-1-1v-5c0-0.6,0.4-1,1-1s1,0.4,1,1v5
							C109.9,94.8,109.5,95.3,108.9,95.3z M108.9,85.3c-0.6,0-1-0.4-1-1v-5c0-0.6,0.4-1,1-1s1,0.4,1,1v5
							C109.9,84.9,109.5,85.3,108.9,85.3z M108.9,75.4c-0.6,0-1-0.4-1-1v-5c0-0.6,0.4-1,1-1s1,0.4,1,1v5
							C109.9,74.9,109.5,75.4,108.9,75.4z M108.9,65.4c-0.6,0-1-0.4-1-1l0-5c0-0.6,0.4-1,1-1c0.6,0,1,0.4,1,1l0,5
							C109.9,65,109.5,65.4,108.9,65.4z M108.9,55.5c-0.6,0-1-0.4-1-1v-5c0-0.6,0.4-1,1-1s1,0.4,1,1v5
							C109.9,55,109.5,55.5,108.9,55.5z"/>
					</g>
					<g>
						<path fill="#43423C" d="M108.9,45.5c-0.6,0-1-0.4-1-1V42c0-0.6,0.4-1,1-1l2.5,0c0.6,0,1,0.4,1,1s-0.4,1-1,1l-1.5,0v1.5
							C109.9,45.1,109.5,45.5,108.9,45.5z"/>
					</g>
					<g>
						<path fill="#43423C" d="M121.7,43h-5.1c-0.6,0-1-0.4-1-1s0.4-1,1-1h5.1c0.6,0,1,0.4,1,1S122.3,43,121.7,43z M137.1,43
							c-0.6,0-1-0.4-1-1s0.4-1,1-1l5.1,0c0.6,0,1,0.4,1,1s-0.4,1-1,1L137.1,43z M132,43h-5.1c-0.6,0-1-0.4-1-1s0.4-1,1-1h5.1
							c0.6,0,1,0.4,1,1S132.6,43,132,43z M147.4,43c-0.6,0-1-0.4-1-1s0.4-1,1-1l5.1,0c0.6,0,1,0.4,1,1s-0.4,1-1,1L147.4,43z
							 M162.9,43h-5.1c-0.6,0-1-0.4-1-1s0.4-1,1-1h5.1c0.6,0,1,0.4,1,1S163.4,43,162.9,43z M178.3,43c-0.6,0-1-0.4-1-1s0.4-1,1-1
							l5.1,0c0.6,0,1,0.4,1,1s-0.4,1-1,1L178.3,43z M173.1,43H168c-0.6,0-1-0.4-1-1s0.4-1,1-1h5.1c0.6,0,1,0.4,1,1
							S173.7,43,173.1,43z"/>
					</g>
					<g>
						<path fill="#43423C" d="M191.1,45.5c-0.6,0-1-0.4-1-1V43l-1.5,0c-0.6,0-1-0.4-1-1s0.4-1,1-1l2.5,0c0.3,0,0.5,0.1,0.7,0.3
							s0.3,0.4,0.3,0.7v2.5C192.1,45.1,191.6,45.5,191.1,45.5z"/>
					</g>
					<g>
						<path fill="#43423C" d="M191.1,155c-0.6,0-1-0.4-1-1v-5c0-0.6,0.4-1,1-1s1,0.4,1,1v5C192.1,154.5,191.6,155,191.1,155z
							 M191.1,145c-0.6,0-1-0.4-1-1l0-5c0-0.6,0.4-1,1-1c0.6,0,1,0.4,1,1l0,5C192.1,144.6,191.6,145,191.1,145z M191.1,135.1
							c-0.6,0-1-0.4-1-1v-5c0-0.6,0.4-1,1-1s1,0.4,1,1v5C192.1,134.6,191.6,135.1,191.1,135.1z M191.1,125.1c-0.6,0-1-0.4-1-1v-5
							c0-0.6,0.4-1,1-1s1,0.4,1,1v5C192.1,124.7,191.6,125.1,191.1,125.1z M191.1,115.2c-0.6,0-1-0.4-1-1v-5c0-0.6,0.4-1,1-1
							s1,0.4,1,1v5C192.1,114.7,191.6,115.2,191.1,115.2z M191.1,105.2c-0.6,0-1-0.4-1-1v-5c0-0.6,0.4-1,1-1s1,0.4,1,1v5
							C192.1,104.8,191.6,105.2,191.1,105.2z M191.1,95.3c-0.6,0-1-0.4-1-1l0-5c0-0.6,0.4-1,1-1c0.6,0,1,0.4,1,1l0,5
							C192.1,94.8,191.6,95.3,191.1,95.3z M191.1,85.3c-0.6,0-1-0.4-1-1v-5c0-0.6,0.4-1,1-1s1,0.4,1,1v5
							C192.1,84.9,191.6,85.3,191.1,85.3z M191.1,75.4c-0.6,0-1-0.4-1-1v-5c0-0.6,0.4-1,1-1s1,0.4,1,1v5
							C192.1,74.9,191.6,75.4,191.1,75.4z M191.1,65.4c-0.6,0-1-0.4-1-1l0-5c0-0.6,0.4-1,1-1c0.6,0,1,0.4,1,1l0,5
							C192.1,65,191.6,65.4,191.1,65.4z M191.1,55.5c-0.6,0-1-0.4-1-1v-5c0-0.6,0.4-1,1-1s1,0.4,1,1v5
							C192.1,55,191.6,55.5,191.1,55.5z"/>
					</g>
					<g>
						<path fill="#43423C" d="M191.1,162.5h-2.5c-0.6,0-1-0.4-1-1s0.4-1,1-1h1.5V159c0-0.6,0.4-1,1-1s1,0.4,1,1v2.5
							C192.1,162,191.6,162.5,191.1,162.5z"/>
					</g>
					<g>
						<path fill="#43423C" d="M121.7,162.5h-5.1c-0.6,0-1-0.4-1-1s0.4-1,1-1h5.1c0.6,0,1,0.4,1,1S122.3,162.5,121.7,162.5z
							 M147.4,162.5c-0.6,0-1-0.4-1-1c0-0.6,0.4-1,1-1l5.1,0c0.6,0,1,0.4,1,1c0,0.6-0.4,1-1,1L147.4,162.5z M142.3,162.5h-5.1
							c-0.6,0-1-0.4-1-1s0.4-1,1-1h5.1c0.6,0,1,0.4,1,1S142.8,162.5,142.3,162.5z M132,162.5h-5.1c-0.6,0-1-0.4-1-1s0.4-1,1-1h5.1
							c0.6,0,1,0.4,1,1S132.6,162.5,132,162.5z M168,162.5c-0.6,0-1-0.4-1-1c0-0.6,0.4-1,1-1l5.1,0c0.6,0,1,0.4,1,1c0,0.6-0.4,1-1,1
							L168,162.5z M162.9,162.5h-5.1c-0.6,0-1-0.4-1-1s0.4-1,1-1h5.1c0.6,0,1,0.4,1,1S163.4,162.5,162.9,162.5z M183.4,162.5h-5.1
							c-0.6,0-1-0.4-1-1s0.4-1,1-1h5.1c0.6,0,1,0.4,1,1S184,162.5,183.4,162.5z"/>
					</g>
				</g>
			</g>
		</g>
		<g>
			<ellipse fill="#6CAEAB" cx="150" cy="170.1" rx="3.7" ry="3.9"/>
			<path fill="#43423C" d="M149.9,175C149.9,175,149.9,175,149.9,175c-0.4,0-0.9-0.1-1.3-0.2c-0.5-0.2-0.8-0.7-0.7-1.2
				s0.7-0.8,1.2-0.7c0.2,0.1,0.5,0.1,0.7,0.1c0.6,0,1,0.5,1,1C150.9,174.5,150.5,175,149.9,175z M153.5,172c-0.1,0-0.2,0-0.2,0
				c-0.5-0.1-0.9-0.7-0.7-1.2c0.1-0.2,0.1-0.5,0.1-0.8c0-0.6,0.4-1,1-1s1,0.4,1,1c0,0.4,0,0.8-0.1,1.2
				C154.4,171.7,154,172,153.5,172z M146.3,171C146.3,171,146.3,171,146.3,171c-0.6,0-1-0.5-1-1c0-0.4,0.1-0.8,0.2-1.2
				c0.1-0.5,0.7-0.9,1.2-0.7c0.5,0.1,0.9,0.7,0.7,1.2c-0.1,0.2-0.1,0.5-0.1,0.8C147.3,170.6,146.8,171,146.3,171z M151,167.3
				c-0.1,0-0.2,0-0.3,0c-0.2-0.1-0.5-0.1-0.7-0.1c-0.6,0-1-0.5-1-1c0-0.6,0.4-1,1-1c0.4,0,0.9,0.1,1.3,0.2c0.5,0.2,0.8,0.7,0.7,1.3
				C151.8,167,151.4,167.3,151,167.3z"/>
		</g>
		<g>
			<line fill="#43423C" x1="150" y1="36.3" x2="150" y2="36.3"/>
			<path fill="#43423C" d="M150,37.8c-0.4,0-0.8-0.2-1.1-0.4c-0.3-0.3-0.4-0.7-0.4-1.1c0-0.4,0.2-0.8,0.4-1.1c0.6-0.6,1.6-0.6,2.1,0
				c0.3,0.3,0.4,0.7,0.4,1.1c0,0.4-0.2,0.8-0.4,1.1C150.8,37.6,150.4,37.8,150,37.8z"/>
		</g>
		<g>
			<rect x="112.8" y="150.7" fill="#43423C" width="74.3" height="6.4"/>
		</g>
		<g>
			<g>
				<rect x="112.9" y="69.5" fill="#43423C" width="35.1" height="10.4"/>
			</g>
			<g>
				<rect x="151.6" y="69.5" fill="#F9B233" width="35.5" height="10.4"/>
			</g>
		</g>
		<g>
			<rect x="112.8" y="82.7" fill="#43423C" width="74.3" height="9.4"/>
		</g>
		<g>
			<rect x="113.2" y="95.6" fill="#F47757" width="73.7" height="14.4"/>
			<path fill="#43423C" d="M186.9,111h-73.7c-0.6,0-1-0.4-1-1V95.6c0-0.6,0.4-1,1-1h73.7c0.6,0,1,0.4,1,1V110
				C187.9,110.5,187.5,111,186.9,111z M114.2,109h71.7V96.6h-71.7V109z"/>
		</g>
		<g>
			<rect x="113.2" y="113.7" fill="#6CAEAB" width="73.6" height="32.8"/>
			<path fill="#43423C" d="M186.8,147.5h-73.6c-0.6,0-1-0.4-1-1v-32.8c0-0.6,0.4-1,1-1h73.6c0.6,0,1,0.4,1,1v32.8
				C187.8,147.1,187.3,147.5,186.8,147.5z M114.2,145.5h71.6v-30.8h-71.6V145.5z"/>
		</g>
		<g>
			<g>
				<rect x="112.9" y="46" fill="#F9B233" width="20.5" height="20.1"/>
				<path fill="#43423C" d="M133.4,67.1h-20.5c-0.6,0-1-0.4-1-1V46c0-0.6,0.4-1,1-1h20.5c0.6,0,1,0.4,1,1v20.1
					C134.4,66.6,133.9,67.1,133.4,67.1z M113.9,65.1h18.5V47h-18.5V65.1z"/>
			</g>
			<g>
				<rect x="138.2" y="46" fill="#F47757" width="48.8" height="20.1"/>
				<path fill="#43423C" d="M187,67.1h-48.8c-0.6,0-1-0.4-1-1V46c0-0.6,0.4-1,1-1H187c0.6,0,1,0.4,1,1v20.1
					C188,66.6,187.6,67.1,187,67.1z M139.2,65.1H186V47h-46.8V65.1z"/>
			</g>
		</g>
	</g>
</g>
</svg>
