<?xml version="1.0" encoding="utf-8"?>
<!-- Generator: Adobe Illustrator 18.0.0, SVG Export Plug-In . SVG Version: 6.00 Build 0)  -->
<!DOCTYPE svg PUBLIC "-//W3C//DTD SVG 1.1//EN" "http://www.w3.org/Graphics/SVG/1.1/DTD/svg11.dtd">
<svg version="1.1" id="business" xmlns="http://www.w3.org/2000/svg" xmlns:xlink="http://www.w3.org/1999/xlink" x="0px" y="0px"
	 viewBox="0 0 300 210" enable-background="new 0 0 300 210" xml:space="preserve">
<g>
	<rect fill="#6CAEAB" width="300" height="210"/>
	<g>
		<polyline fill="#E5E2D1" points="123.7,165.5 123.7,85.8 86,85.8 86,165.5 		"/>
		
			<polyline fill="#E5E2D1" stroke="#43423C" stroke-width="2" stroke-linecap="round" stroke-linejoin="round" stroke-miterlimit="10" points="
			214,165.5 214,96 195.2,85.8 176.3,96 176.3,165.5 		"/>
		<polygon fill="#F47757" stroke="#43423C" stroke-width="2" stroke-linejoin="round" stroke-miterlimit="10" points="170.6,55.4 
			170.6,44.5 129.4,44.5 129.4,55.4 123.7,55.4 123.7,165.5 176.3,165.5 176.3,55.4 		"/>
		
			<rect x="129.4" y="44.5" fill="#F9B233" stroke="#43423C" stroke-width="2" stroke-linecap="round" stroke-linejoin="round" stroke-miterlimit="10" width="41.1" height="10.9"/>
		
			<rect x="139.9" y="66" fill="#FFFFFF" stroke="#43423C" stroke-width="2" stroke-linecap="round" stroke-linejoin="round" stroke-miterlimit="10" width="20.2" height="99.5"/>
		
			<line fill="none" stroke="#43423C" stroke-width="2" stroke-linejoin="round" stroke-miterlimit="10" x1="123.7" y1="78.4" x2="139.9" y2="78.4"/>
		
			<line fill="none" stroke="#43423C" stroke-width="2" stroke-linejoin="round" stroke-miterlimit="10" x1="160.1" y1="78.4" x2="176.3" y2="78.4"/>
		
			<line fill="none" stroke="#43423C" stroke-width="2" stroke-linecap="round" stroke-linejoin="round" stroke-miterlimit="10" x1="111.8" y1="165.5" x2="231.6" y2="165.5"/>
		
			<line fill="none" stroke="#43423C" stroke-width="2" stroke-linecap="round" stroke-linejoin="round" stroke-miterlimit="10" x1="237.5" y1="165.5" x2="243.3" y2="165.5"/>
		
			<line fill="none" stroke="#43423C" stroke-width="2" stroke-linecap="round" stroke-linejoin="round" stroke-miterlimit="10" x1="56.7" y1="165.5" x2="104.9" y2="165.5"/>
		
			<polyline fill="none" stroke="#43423C" stroke-width="2" stroke-linecap="round" stroke-linejoin="round" stroke-miterlimit="10" points="
			123.7,165.5 123.7,85.8 86,85.8 86,165.5 		"/>
		
			<line fill="none" stroke="#43423C" stroke-width="2" stroke-linecap="round" stroke-linejoin="round" stroke-miterlimit="10" x1="86" y1="101.7" x2="123.7" y2="101.7"/>
		
			<line fill="none" stroke="#43423C" stroke-width="2" stroke-linecap="round" stroke-linejoin="round" stroke-miterlimit="10" x1="86" y1="117.6" x2="123.7" y2="117.6"/>
		
			<line fill="none" stroke="#43423C" stroke-width="2" stroke-linecap="round" stroke-linejoin="round" stroke-miterlimit="10" x1="86" y1="133.6" x2="123.7" y2="133.6"/>
		
			<line fill="none" stroke="#43423C" stroke-width="2" stroke-linecap="round" stroke-linejoin="round" stroke-miterlimit="10" x1="86" y1="149.5" x2="123.7" y2="149.5"/>
		<g>
			
				<line fill="none" stroke="#43423C" stroke-width="2" stroke-linejoin="round" stroke-miterlimit="10" x1="181.6" y1="106.5" x2="208.1" y2="106.5"/>
			
				<line fill="none" stroke="#43423C" stroke-width="2" stroke-linejoin="round" stroke-miterlimit="10" x1="181.6" y1="114.6" x2="208.1" y2="114.6"/>
			
				<line fill="none" stroke="#43423C" stroke-width="2" stroke-linejoin="round" stroke-miterlimit="10" x1="181.6" y1="122.7" x2="208.1" y2="122.7"/>
			
				<line fill="none" stroke="#43423C" stroke-width="2" stroke-linejoin="round" stroke-miterlimit="10" x1="181.6" y1="130.9" x2="208.1" y2="130.9"/>
			
				<line fill="none" stroke="#43423C" stroke-width="2" stroke-linejoin="round" stroke-miterlimit="10" x1="181.6" y1="139" x2="208.1" y2="139"/>
			
				<line fill="none" stroke="#43423C" stroke-width="2" stroke-linejoin="round" stroke-miterlimit="10" x1="181.6" y1="147.2" x2="208.1" y2="147.2"/>
			
				<line fill="none" stroke="#43423C" stroke-width="2" stroke-linejoin="round" stroke-miterlimit="10" x1="181.6" y1="155.3" x2="208.1" y2="155.3"/>
		</g>
		<g>
			<g>
				
					<rect x="92.2" y="90.6" fill="#F9B233" stroke="#43423C" stroke-width="2" stroke-linejoin="round" stroke-miterlimit="10" width="4" height="5.7"/>
				
					<rect x="102.8" y="90.6" fill="#F9B233" stroke="#43423C" stroke-width="2" stroke-linejoin="round" stroke-miterlimit="10" width="4" height="5.7"/>
				
					<rect x="113.5" y="90.6" fill="#F9B233" stroke="#43423C" stroke-width="2" stroke-linejoin="round" stroke-miterlimit="10" width="4" height="5.7"/>
			</g>
			<g>
				
					<rect x="92.2" y="107" fill="#F9B233" stroke="#43423C" stroke-width="2" stroke-linejoin="round" stroke-miterlimit="10" width="4" height="5.7"/>
				
					<rect x="102.8" y="107" fill="#F9B233" stroke="#43423C" stroke-width="2" stroke-linejoin="round" stroke-miterlimit="10" width="4" height="5.7"/>
				
					<rect x="113.5" y="107" fill="#F9B233" stroke="#43423C" stroke-width="2" stroke-linejoin="round" stroke-miterlimit="10" width="4" height="5.7"/>
			</g>
			<g>
				
					<rect x="92.2" y="122.5" fill="#F9B233" stroke="#43423C" stroke-width="2" stroke-linejoin="round" stroke-miterlimit="10" width="4" height="5.7"/>
				
					<rect x="102.8" y="122.5" fill="#F9B233" stroke="#43423C" stroke-width="2" stroke-linejoin="round" stroke-miterlimit="10" width="4" height="5.7"/>
				
					<rect x="113.5" y="122.5" fill="#F9B233" stroke="#43423C" stroke-width="2" stroke-linejoin="round" stroke-miterlimit="10" width="4" height="5.7"/>
			</g>
			<g>
				
					<rect x="92.2" y="139" fill="#F9B233" stroke="#43423C" stroke-width="2" stroke-linejoin="round" stroke-miterlimit="10" width="4" height="5.7"/>
				
					<rect x="102.8" y="139" fill="#F9B233" stroke="#43423C" stroke-width="2" stroke-linejoin="round" stroke-miterlimit="10" width="4" height="5.7"/>
				
					<rect x="113.5" y="139" fill="#F9B233" stroke="#43423C" stroke-width="2" stroke-linejoin="round" stroke-miterlimit="10" width="4" height="5.7"/>
			</g>
			<g>
				
					<rect x="92.2" y="154.7" fill="#F9B233" stroke="#43423C" stroke-width="2" stroke-linejoin="round" stroke-miterlimit="10" width="4" height="5.7"/>
				
					<rect x="102.8" y="154.7" fill="#F9B233" stroke="#43423C" stroke-width="2" stroke-linejoin="round" stroke-miterlimit="10" width="4" height="5.7"/>
				
					<rect x="113.5" y="154.7" fill="#F9B233" stroke="#43423C" stroke-width="2" stroke-linejoin="round" stroke-miterlimit="10" width="4" height="5.7"/>
			</g>
		</g>
		<g>
			
				<line fill="none" stroke="#43423C" stroke-width="2" stroke-linecap="round" stroke-linejoin="round" stroke-miterlimit="10" x1="131.8" y1="85.8" x2="131.8" y2="91.8"/>
			
				<line fill="none" stroke="#43423C" stroke-width="2" stroke-linecap="round" stroke-linejoin="round" stroke-miterlimit="10" x1="168.2" y1="85.8" x2="168.2" y2="91.8"/>
		</g>
		<g>
			
				<line fill="none" stroke="#43423C" stroke-width="2" stroke-linecap="round" stroke-linejoin="round" stroke-miterlimit="10" x1="131.8" y1="62.9" x2="131.8" y2="69"/>
			
				<line fill="none" stroke="#43423C" stroke-width="2" stroke-linecap="round" stroke-linejoin="round" stroke-miterlimit="10" x1="168.2" y1="62.9" x2="168.2" y2="69"/>
		</g>
		<g>
			
				<line fill="none" stroke="#43423C" stroke-width="2" stroke-linecap="round" stroke-linejoin="round" stroke-miterlimit="10" x1="131.8" y1="98.8" x2="131.8" y2="104.9"/>
			
				<line fill="none" stroke="#43423C" stroke-width="2" stroke-linecap="round" stroke-linejoin="round" stroke-miterlimit="10" x1="168.2" y1="98.8" x2="168.2" y2="104.9"/>
		</g>
		<g>
			
				<line fill="none" stroke="#43423C" stroke-width="2" stroke-linecap="round" stroke-linejoin="round" stroke-miterlimit="10" x1="131.8" y1="111.9" x2="131.8" y2="117.9"/>
			
				<line fill="none" stroke="#43423C" stroke-width="2" stroke-linecap="round" stroke-linejoin="round" stroke-miterlimit="10" x1="168.2" y1="111.9" x2="168.2" y2="117.9"/>
		</g>
		<g>
			
				<line fill="none" stroke="#43423C" stroke-width="2" stroke-linecap="round" stroke-linejoin="round" stroke-miterlimit="10" x1="131.8" y1="124.9" x2="131.8" y2="131"/>
			
				<line fill="none" stroke="#43423C" stroke-width="2" stroke-linecap="round" stroke-linejoin="round" stroke-miterlimit="10" x1="168.2" y1="124.9" x2="168.2" y2="131"/>
		</g>
		<g>
			
				<line fill="none" stroke="#43423C" stroke-width="2" stroke-linecap="round" stroke-linejoin="round" stroke-miterlimit="10" x1="131.8" y1="137.9" x2="131.8" y2="144"/>
			
				<line fill="none" stroke="#43423C" stroke-width="2" stroke-linecap="round" stroke-linejoin="round" stroke-miterlimit="10" x1="168.2" y1="137.9" x2="168.2" y2="144"/>
		</g>
		<g>
			
				<line fill="none" stroke="#43423C" stroke-width="2" stroke-linecap="round" stroke-linejoin="round" stroke-miterlimit="10" x1="131.8" y1="151" x2="131.8" y2="157"/>
			
				<line fill="none" stroke="#43423C" stroke-width="2" stroke-linecap="round" stroke-linejoin="round" stroke-miterlimit="10" x1="168.2" y1="151" x2="168.2" y2="157"/>
		</g>
		
			<line fill="none" stroke="#43423C" stroke-width="2" stroke-linecap="round" stroke-linejoin="round" stroke-miterlimit="10" x1="150" y1="75.4" x2="150" y2="81.5"/>
		
			<line fill="none" stroke="#43423C" stroke-width="2" stroke-linecap="round" stroke-linejoin="round" stroke-miterlimit="10" x1="150" y1="88.5" x2="150" y2="94.6"/>
		
			<line fill="none" stroke="#43423C" stroke-width="2" stroke-linecap="round" stroke-linejoin="round" stroke-miterlimit="10" x1="150" y1="101.6" x2="150" y2="107.7"/>
		
			<line fill="none" stroke="#43423C" stroke-width="2" stroke-linecap="round" stroke-linejoin="round" stroke-miterlimit="10" x1="150" y1="114.8" x2="150" y2="120.8"/>
		
			<line fill="none" stroke="#43423C" stroke-width="2" stroke-linecap="round" stroke-linejoin="round" stroke-miterlimit="10" x1="150" y1="127.9" x2="150" y2="133.9"/>
		
			<line fill="none" stroke="#43423C" stroke-width="2" stroke-linecap="round" stroke-linejoin="round" stroke-miterlimit="10" x1="150" y1="141" x2="150" y2="147"/>
		
			<line fill="none" stroke="#43423C" stroke-width="2" stroke-linecap="round" stroke-linejoin="round" stroke-miterlimit="10" x1="126" y1="55.4" x2="173.8" y2="55.4"/>
		
			<line fill="none" stroke="#43423C" stroke-width="2" stroke-linecap="round" stroke-linejoin="round" stroke-miterlimit="10" x1="135.8" y1="50" x2="164.2" y2="50"/>
		
			<polygon fill="#FFFFFF" stroke="#43423C" stroke-width="2" stroke-linecap="round" stroke-linejoin="round" stroke-miterlimit="10" points="
			195.2,85.8 176.3,96 176.3,96.2 214,96.2 214,96 		"/>
	</g>
	<rect x="111.8" y="85.8" opacity="0.2" fill="#43423C" width="11.9" height="79.7"/>
	<polygon opacity="0.2" fill="#43423C" points="175.7,165.5 187.6,165.5 187.6,89.5 175.7,96 	"/>
	<rect x="135.8" y="70.2" opacity="0.2" fill="#43423C" width="4.1" height="95.3"/>
	<rect x="160.1" y="70.2" opacity="0.2" fill="#43423C" width="4.1" height="95.3"/>
</g>
</svg>
