<?xml version="1.0" encoding="utf-8"?>
<!-- Generator: Adobe Illustrator 18.0.0, SVG Export Plug-In . SVG Version: 6.00 Build 0)  -->
<!DOCTYPE svg PUBLIC "-//W3C//DTD SVG 1.1//EN" "http://www.w3.org/Graphics/SVG/1.1/DTD/svg11.dtd">
<svg version="1.1" id="business_school" xmlns="http://www.w3.org/2000/svg" xmlns:xlink="http://www.w3.org/1999/xlink" x="0px"
	 y="0px" viewBox="0 0 300 210" enable-background="new 0 0 300 210" xml:space="preserve">
<g>
	<rect fill="#F9B233" width="300" height="210"/>
	<path opacity="0.2" fill="#43423C" d="M95.5,170.6l-7.6-3.4l-7.7,3.4v-6.8c0-1.4,0-4.8,0-4.8v-11h15.3v11v4.8V170.6z"/>
	<path fill="#F9B233" stroke="#43423C" stroke-width="2" stroke-linejoin="round" stroke-miterlimit="10" d="M70.1,47.5
		c-5.8,0-10.5,4.7-10.5,10.5v84.1l11.6,2V47.5H70.1z"/>
	<polygon fill="#F47757" stroke="#43423C" stroke-width="2" stroke-linejoin="round" stroke-miterlimit="10" points="71.1,47.5 
		71.1,132.7 128.1,132.7 141.6,132.7 141.6,68.5 141.6,58 141.6,47.5 	"/>
	<path fill="none" stroke="#43423C" stroke-width="2" stroke-linejoin="round" stroke-miterlimit="10" d="M141.6,153.7H70.1
		c-5.8,0-10.5-4.7-10.5-10.5v0c0-5.8,4.7-10.5,10.5-10.5h71.6"/>
	<path fill="#FFFFFF" stroke="#43423C" stroke-width="2" stroke-linejoin="round" stroke-miterlimit="10" d="M70.1,132.7
		c-5.8,0-10.5,4.7-10.5,10.5s4.7,10.5,10.5,10.5h66.7v-21H70.1z"/>
	
		<line fill="none" stroke="#43423C" stroke-width="2" stroke-linejoin="round" stroke-miterlimit="10" x1="136.7" y1="137.8" x2="70.1" y2="137.8"/>
	
		<line fill="none" stroke="#43423C" stroke-width="2" stroke-linejoin="round" stroke-miterlimit="10" x1="136.7" y1="143.2" x2="70.1" y2="143.2"/>
	
		<line fill="none" stroke="#43423C" stroke-width="2" stroke-linejoin="round" stroke-miterlimit="10" x1="136.7" y1="148.6" x2="70.1" y2="148.6"/>
	<path fill="#F47757" stroke="#43423C" stroke-width="2" stroke-linejoin="round" stroke-miterlimit="10" d="M92.1,165.8l-7.6-3.4
		l-7.7,3.4V159c0-1.4,0-4.8,0-4.8v-11h15.3v11v4.8V165.8z"/>
	<path fill="#FFFFFF" stroke="#43423C" stroke-width="2" stroke-linejoin="round" stroke-miterlimit="10" d="M128.7,77.3h-44
		c-0.9,0-1.6-0.7-1.6-1.6V62.9c0-0.9,0.7-1.6,1.6-1.6h44c0.9,0,1.6,0.7,1.6,1.6v12.7C130.4,76.5,129.7,77.3,128.7,77.3z"/>
	
		<rect x="136.7" y="132.7" fill="#F9B233" stroke="#43423C" stroke-width="2" stroke-linejoin="round" stroke-miterlimit="10" width="4.9" height="21"/>
	<rect x="89.1" y="66.3" fill="#F9B233" width="23.2" height="6"/>
	<rect x="117.4" y="66.3" fill="#F9B233" width="6.3" height="6"/>
	<g>
		
			<rect x="154" y="50.4" fill="#FFFFFF" stroke="#43423C" stroke-width="2" stroke-linejoin="round" stroke-miterlimit="10" width="79.8" height="106.3"/>
		<polygon opacity="0.2" fill="#43423C" points="178,50.5 157.7,71.2 157.7,156.8 232.7,156.8 232.7,50.5 		"/>
		<g>
			<polygon fill="#FFFFFF" stroke="#43423C" stroke-width="2" stroke-linejoin="round" stroke-miterlimit="10" points="181,44.5 
				181,65.2 160.7,65.2 160.7,150.8 240.4,150.8 240.4,44.5 			"/>
		</g>
		<path fill="none" stroke="#F47757" stroke-width="2" stroke-linejoin="round" stroke-miterlimit="10" d="M233.5,53.7V42.5
			c0-1.7-1.4-3.1-3.1-3.1h0c-1.7,0-3.1,1.4-3.1,3.1v1"/>
		<g>
			
				<rect x="172.2" y="77.5" fill="#F47757" stroke="#43423C" stroke-width="2" stroke-linejoin="round" stroke-miterlimit="10" width="8.8" height="8.8"/>
			
				<rect x="186.8" y="77.5" fill="#FFFFFF" stroke="#43423C" stroke-width="2" stroke-linejoin="round" stroke-miterlimit="10" width="43" height="8.8"/>
		</g>
		<g>
			
				<rect x="172.2" y="95.2" fill="#FFFFFF" stroke="#43423C" stroke-width="2" stroke-linejoin="round" stroke-miterlimit="10" width="8.8" height="8.8"/>
			
				<rect x="186.8" y="95.2" fill="#F9B233" stroke="#43423C" stroke-width="2" stroke-linejoin="round" stroke-miterlimit="10" width="43" height="8.8"/>
		</g>
		<g>
			
				<rect x="172.2" y="112.9" fill="#F9B233" stroke="#43423C" stroke-width="2" stroke-linejoin="round" stroke-miterlimit="10" width="8.8" height="8.8"/>
			
				<rect x="186.8" y="112.9" fill="#FFFFFF" stroke="#43423C" stroke-width="2" stroke-linejoin="round" stroke-miterlimit="10" width="43" height="8.8"/>
		</g>
		<g>
			
				<rect x="172.2" y="130.5" fill="#F47757" stroke="#43423C" stroke-width="2" stroke-linejoin="round" stroke-miterlimit="10" width="8.8" height="8.8"/>
			
				<rect x="186.8" y="130.5" fill="#F47757" stroke="#43423C" stroke-width="2" stroke-linejoin="round" stroke-miterlimit="10" width="43" height="8.8"/>
		</g>
		<g>
			
				<rect x="172.2" y="59.8" fill="#FFFFFF" stroke="#43423C" stroke-width="2" stroke-linejoin="round" stroke-miterlimit="10" width="8.8" height="8.8"/>
			
				<rect x="186.8" y="59.8" fill="#FFFFFF" stroke="#43423C" stroke-width="2" stroke-linejoin="round" stroke-miterlimit="10" width="43" height="8.8"/>
		</g>
		<polygon fill="#E5E2D1" stroke="#43423C" stroke-width="2" stroke-linejoin="round" stroke-miterlimit="10" points="181,44.5 
			160.7,65.2 181,65.2 		"/>
		<rect x="160.7" y="65.2" opacity="0.2" fill="#43423C" width="20.1" height="4.5"/>
		<path fill="none" stroke="#F47757" stroke-width="2" stroke-linecap="round" stroke-linejoin="round" stroke-miterlimit="10" d="
			M233.5,53.8c0,1.4-1.2,2.6-2.6,2.6l0,0c-1.4,0-2.6-1.2-2.6-2.6v-5.3"/>
	</g>
</g>
</svg>
