<?xml version="1.0" encoding="utf-8"?>
<!-- Generator: Adobe Illustrator 18.0.0, SVG Export Plug-In . SVG Version: 6.00 Build 0)  -->
<!DOCTYPE svg PUBLIC "-//W3C//DTD SVG 1.1//EN" "http://www.w3.org/Graphics/SVG/1.1/DTD/svg11.dtd">
<svg version="1.1" id="content" xmlns="http://www.w3.org/2000/svg" xmlns:xlink="http://www.w3.org/1999/xlink" x="0px" y="0px"
	 viewBox="0 0 300 210" enable-background="new 0 0 300 210" xml:space="preserve">
<g>
	<g>
		<rect x="-0.1" y="0" fill="#6CAEAB" width="300.1" height="210"/>
	</g>
	<g>
		<g>
			<rect x="100.4" y="54.3" fill="#E5E2D1" width="45.9" height="45.9"/>
			<path fill="#43423C" d="M146.3,101.2h-45.9c-0.6,0-1-0.4-1-1V54.3c0-0.6,0.4-1,1-1h45.9c0.6,0,1,0.4,1,1v45.9
				C147.3,100.8,146.8,101.2,146.3,101.2z M101.4,99.2h43.9V55.3h-43.9V99.2z"/>
		</g>
		<g>
			<path fill="#F9B233" d="M134.4,74.7c1.9,1.1,1.9,3.9,0,5l-8.3,4.8l-8.3,4.8c-1.9,1.1-4.4-0.3-4.4-2.5l0-9.6l0-9.6
				c0-2.2,2.4-3.6,4.4-2.5l8.3,4.8L134.4,74.7z"/>
			<path fill="#43423C" d="M116.4,90.7c-2.2,0-3.9-1.8-3.9-3.9l0-19.1c0-1,0.4-2,1.1-2.8c1.2-1.2,3.2-1.5,4.7-0.6l16.6,9.5
				c1.2,0.7,2,2,2,3.4c0,1.4-0.7,2.7-2,3.4l-16.5,9.6C117.7,90.6,117.1,90.7,116.4,90.7z M116.4,65.8c-0.5,0-1,0.2-1.4,0.6
				c-0.3,0.3-0.6,0.7-0.5,1.3l0,19.1c0,1.2,1,1.9,1.9,1.9c0.3,0,0.7-0.1,1-0.3l16.5-9.6c0.6-0.3,1-1,1-1.7c0-0.7-0.4-1.3-1-1.7
				l-16.6-9.5C117,65.9,116.7,65.8,116.4,65.8z"/>
		</g>
	</g>
	<g>
		<g>
			<rect x="155.9" y="54.3" fill="#6CAEAB" width="45.9" height="45.9"/>
			<path fill="#43423C" d="M201.7,101.2h-45.9c-0.6,0-1-0.4-1-1V54.3c0-0.6,0.4-1,1-1h45.9c0.6,0,1,0.4,1,1v45.9
				C202.7,100.8,202.3,101.2,201.7,101.2z M156.9,99.2h43.9V55.3h-43.9V99.2z"/>
		</g>
	</g>
	<g>
		<g>
			<rect x="212.5" y="54.3" fill="#F9B233" width="45.9" height="45.9"/>
			<path fill="#43423C" d="M258.4,101.2h-45.9c-0.6,0-1-0.4-1-1V54.3c0-0.6,0.4-1,1-1h45.9c0.6,0,1,0.4,1,1v45.9
				C259.4,100.8,259,101.2,258.4,101.2z M213.5,99.2h43.9V55.3h-43.9V99.2z"/>
		</g>
	</g>
	<g>
		<g>
			<rect x="41.6" y="105.9" fill="#F47757" width="27.2" height="27.2"/>
			<path fill="#43423C" d="M68.8,134.1H41.6c-0.6,0-1-0.4-1-1v-27.2c0-0.6,0.4-1,1-1h27.2c0.6,0,1,0.4,1,1v27.2
				C69.8,133.7,69.4,134.1,68.8,134.1z M42.6,132.1h25.2v-25.2H42.6V132.1z"/>
		</g>
		<g>
			<path fill="#FFFFFF" d="M62.6,117.6c1.4,0.8,1.4,2.9,0,3.7l-6,3.5l-6,3.5c-1.4,0.8-3.2-0.2-3.2-1.8l0-7l0-7
				c0-1.6,1.8-2.7,3.2-1.8l6,3.5L62.6,117.6z"/>
			<path fill="#43423C" d="M49.5,129.6c-1.7,0-3.1-1.4-3.1-3.1l0-13.9c0-0.8,0.3-1.6,0.9-2.2c1-1,2.6-1.2,3.8-0.5l12.1,7
				c1,0.6,1.6,1.6,1.6,2.7c0,1.1-0.6,2.1-1.6,2.7l-12.1,7C50.6,129.4,50,129.6,49.5,129.6z M49.5,111.4c-0.3,0-0.6,0.1-0.8,0.3
				c-0.1,0.1-0.3,0.4-0.3,0.8l0,13.9c0,0.9,1,1.4,1.7,1l12.1-7c0.5-0.3,0.6-0.8,0.6-1c0-0.2-0.1-0.7-0.6-1l-12.1-7
				C49.8,111.4,49.7,111.4,49.5,111.4z"/>
		</g>
	</g>
	<g>
		<g>
			<rect x="193.1" y="105.9" fill="#F47757" width="27.2" height="27.2"/>
			<path fill="#43423C" d="M220.4,134.1h-27.2c-0.6,0-1-0.4-1-1v-27.2c0-0.6,0.4-1,1-1h27.2c0.6,0,1,0.4,1,1v27.2
				C221.4,133.7,220.9,134.1,220.4,134.1z M194.1,132.1h25.2v-25.2h-25.2V132.1z"/>
		</g>
		<g>
			<path fill="#FFFFFF" d="M214.2,117.6c1.4,0.8,1.4,2.9,0,3.7l-6,3.5l-6,3.5c-1.4,0.8-3.2-0.2-3.2-1.8l0-7l0-7
				c0-1.6,1.8-2.7,3.2-1.8l6,3.5L214.2,117.6z"/>
			<path fill="#43423C" d="M201,129.6c-1.7,0-3.1-1.4-3.1-3.1l0-13.9c0-0.8,0.3-1.6,0.9-2.2c1-1,2.6-1.2,3.8-0.5l12.1,7
				c1,0.6,1.6,1.6,1.6,2.7s-0.6,2.1-1.6,2.7l-12.1,7C202.1,129.4,201.6,129.6,201,129.6z M201,111.4c-0.3,0-0.6,0.1-0.8,0.3
				c-0.1,0.1-0.3,0.4-0.3,0.8l0,13.9c0,1,1,1.4,1.7,1l12.1-7c0.5-0.3,0.6-0.8,0.6-1c0-0.2-0.1-0.7-0.6-1l-12.1-7
				C201.4,111.4,201.2,111.4,201,111.4z"/>
		</g>
	</g>
	<g>
		<rect x="69.6" y="155.6" fill="#6CAEAB" width="20.9" height="20.9"/>
		<path fill="#43423C" d="M90.5,177.5H69.6c-0.6,0-1-0.4-1-1v-20.9c0-0.6,0.4-1,1-1h20.9c0.6,0,1,0.4,1,1v20.9
			C91.5,177.1,91.1,177.5,90.5,177.5z M70.6,175.5h18.9v-18.9H70.6V175.5z"/>
	</g>
	<g>
		<g>
			<rect x="117.4" y="33.5" fill="#43423C" width="14.8" height="14.8"/>
			<path fill="#43423C" d="M132.1,49.3h-14.8c-0.6,0-1-0.4-1-1V33.5c0-0.6,0.4-1,1-1h14.8c0.6,0,1,0.4,1,1v14.8
				C133.1,48.8,132.7,49.3,132.1,49.3z M118.4,47.3h12.8V34.5h-12.8V47.3z"/>
		</g>
	</g>
	<g>
		<g>
			<rect x="92.1" y="33.5" fill="#F9B233" width="14.8" height="14.8"/>
			<path fill="#43423C" d="M106.9,49.3H92.1c-0.6,0-1-0.4-1-1V33.5c0-0.6,0.4-1,1-1h14.8c0.6,0,1,0.4,1,1v14.8
				C107.9,48.8,107.4,49.3,106.9,49.3z M93.1,47.3h12.8V34.5H93.1V47.3z"/>
		</g>
	</g>
	<g>
		<g>
			<rect x="218.4" y="33.5" fill="#F47757" width="14.8" height="14.8"/>
			<path fill="#43423C" d="M233.1,49.3h-14.8c-0.6,0-1-0.4-1-1V33.5c0-0.6,0.4-1,1-1h14.8c0.6,0,1,0.4,1,1v14.8
				C234.1,48.8,233.7,49.3,233.1,49.3z M219.4,47.3h12.8V34.5h-12.8V47.3z"/>
		</g>
	</g>
	<g>
		<rect x="82.7" y="138.7" fill="#F9B233" width="11.4" height="11.4"/>
		<path fill="#43423C" d="M94.1,151.1H82.7c-0.6,0-1-0.4-1-1v-11.4c0-0.6,0.4-1,1-1h11.4c0.6,0,1,0.4,1,1v11.4
			C95.1,150.7,94.6,151.1,94.1,151.1z M83.7,149.1h9.4v-9.4h-9.4V149.1z"/>
	</g>
	<g>
		<rect x="62.2" y="138.7" fill="#6CAEAB" width="11.4" height="11.4"/>
		<path fill="#43423C" d="M73.5,151.1H62.2c-0.6,0-1-0.4-1-1v-11.4c0-0.6,0.4-1,1-1h11.4c0.6,0,1,0.4,1,1v11.4
			C74.5,150.7,74.1,151.1,73.5,151.1z M63.2,149.1h9.4v-9.4h-9.4V149.1z"/>
	</g>
	<g>
		<rect x="41.6" y="138.7" fill="#43423C" width="11.4" height="11.4"/>
		<path fill="#43423C" d="M53,151.1H41.6c-0.6,0-1-0.4-1-1v-11.4c0-0.6,0.4-1,1-1H53c0.6,0,1,0.4,1,1v11.4
			C54,150.7,53.5,151.1,53,151.1z M42.6,149.1H52v-9.4h-9.4V149.1z"/>
	</g>
	<g>
		<rect x="144.3" y="138.7" fill="#F47757" width="11.4" height="11.4"/>
		<path fill="#43423C" d="M155.7,151.1h-11.4c-0.6,0-1-0.4-1-1v-11.4c0-0.6,0.4-1,1-1h11.4c0.6,0,1,0.4,1,1v11.4
			C156.7,150.7,156.3,151.1,155.7,151.1z M145.3,149.1h9.4v-9.4h-9.4V149.1z"/>
	</g>
	<g>
		<rect x="123.8" y="138.7" fill="#6CAEAB" width="11.4" height="11.4"/>
		<path fill="#43423C" d="M135.2,151.1h-11.4c-0.6,0-1-0.4-1-1v-11.4c0-0.6,0.4-1,1-1h11.4c0.6,0,1,0.4,1,1v11.4
			C136.2,150.7,135.7,151.1,135.2,151.1z M124.8,149.1h9.4v-9.4h-9.4V149.1z"/>
	</g>
	<g>
		<rect x="103.2" y="138.7" fill="#FFFFFF" width="11.4" height="11.4"/>
		<path fill="#43423C" d="M114.6,151.1h-11.4c-0.6,0-1-0.4-1-1v-11.4c0-0.6,0.4-1,1-1h11.4c0.6,0,1,0.4,1,1v11.4
			C115.6,150.7,115.2,151.1,114.6,151.1z M104.2,149.1h9.4v-9.4h-9.4V149.1z"/>
	</g>
	<g>
		<rect x="206" y="138.7" fill="#F9B233" width="11.4" height="11.4"/>
		<path fill="#43423C" d="M217.3,151.1H206c-0.6,0-1-0.4-1-1v-11.4c0-0.6,0.4-1,1-1h11.4c0.6,0,1,0.4,1,1v11.4
			C218.3,150.7,217.9,151.1,217.3,151.1z M207,149.1h9.4v-9.4H207V149.1z"/>
	</g>
	<g>
		<rect x="185.4" y="138.7" fill="#43423C" width="11.4" height="11.4"/>
		<path fill="#43423C" d="M196.8,151.1h-11.4c-0.6,0-1-0.4-1-1v-11.4c0-0.6,0.4-1,1-1h11.4c0.6,0,1,0.4,1,1v11.4
			C197.8,150.7,197.3,151.1,196.8,151.1z M186.4,149.1h9.4v-9.4h-9.4V149.1z"/>
	</g>
	<g>
		<rect x="164.9" y="138.7" fill="#FFFFFF" width="11.4" height="11.4"/>
		<path fill="#43423C" d="M176.2,151.1h-11.4c-0.6,0-1-0.4-1-1v-11.4c0-0.6,0.4-1,1-1h11.4c0.6,0,1,0.4,1,1v11.4
			C177.2,150.7,176.8,151.1,176.2,151.1z M165.9,149.1h9.4v-9.4h-9.4V149.1z"/>
	</g>
	<g>
		<rect x="247" y="138.7" fill="#F47757" width="11.4" height="11.4"/>
		<path fill="#43423C" d="M258.4,151.1H247c-0.6,0-1-0.4-1-1v-11.4c0-0.6,0.4-1,1-1h11.4c0.6,0,1,0.4,1,1v11.4
			C259.4,150.7,259,151.1,258.4,151.1z M248,149.1h9.4v-9.4H248V149.1z"/>
	</g>
	<g>
		<rect x="226.5" y="138.7" fill="#43423C" width="11.4" height="11.4"/>
		<path fill="#43423C" d="M237.9,151.1h-11.4c-0.6,0-1-0.4-1-1v-11.4c0-0.6,0.4-1,1-1h11.4c0.6,0,1,0.4,1,1v11.4
			C238.9,150.7,238.4,151.1,237.9,151.1z M227.5,149.1h9.4v-9.4h-9.4V149.1z"/>
	</g>
	<g>
		<g>
			<rect x="117.4" y="105.9" fill="#43423C" width="27.2" height="27.2"/>
			<path fill="#43423C" d="M144.6,134.1h-27.2c-0.6,0-1-0.4-1-1v-27.2c0-0.6,0.4-1,1-1h27.2c0.6,0,1,0.4,1,1v27.2
				C145.6,133.7,145.1,134.1,144.6,134.1z M118.4,132.1h25.2v-25.2h-25.2V132.1z"/>
		</g>
	</g>
	<g>
		<g>
			<rect x="231" y="105.9" fill="#6CAEAB" width="27.2" height="27.2"/>
			<path fill="#43423C" d="M258.3,134.1H231c-0.6,0-1-0.4-1-1v-27.2c0-0.6,0.4-1,1-1h27.2c0.6,0,1,0.4,1,1v27.2
				C259.3,133.7,258.8,134.1,258.3,134.1z M232,132.1h25.2v-25.2H232V132.1z"/>
		</g>
		<g>
			<g>
				<g>
					<g>
						<g>
							<path fill="#F9B233" d="M248.2,121.7c-1.3-1-2-2.7-1.5-4.4c0.6-2.2,2.9-3.4,5.1-2.8c2.2,0.6,3.4,2.9,2.8,5.1
								c-0.3,1-0.9,1.8-1.7,2.3"/>
							<path fill="#43423C" d="M252.9,122.8c-0.3,0-0.6-0.2-0.8-0.5c-0.3-0.5-0.2-1.1,0.3-1.4c0.6-0.4,1.1-1,1.3-1.7
								c0.5-1.6-0.5-3.4-2.1-3.8c-1.6-0.5-3.4,0.5-3.8,2.1c-0.4,1.2,0.1,2.6,1.1,3.3c0.4,0.3,0.5,1,0.2,1.4c-0.3,0.4-1,0.5-1.4,0.2
								c-1.7-1.3-2.4-3.5-1.9-5.5c0.8-2.7,3.6-4.3,6.3-3.5c2.7,0.8,4.3,3.6,3.5,6.3c-0.3,1.2-1.1,2.2-2.1,2.9
								C253.3,122.7,253.1,122.8,252.9,122.8z"/>
						</g>
						<g>
							<polyline fill="#F9B233" points="253.3,121.5 249,124.7 247.1,123.6 248.6,120.8 							"/>
							<path fill="#43423C" d="M249,125.7c-0.2,0-0.4,0-0.5-0.1l-1.9-1.1c-0.5-0.3-0.6-0.9-0.4-1.3l1.5-2.8c0.3-0.5,0.9-0.7,1.4-0.4
								c0.5,0.3,0.7,0.9,0.4,1.4l-1.1,2l0.5,0.3l3.8-2.8c0.4-0.3,1.1-0.2,1.4,0.2s0.2,1.1-0.2,1.4l-4.3,3.2
								C249.4,125.7,249.2,125.7,249,125.7z"/>
						</g>
					</g>
				</g>
			</g>
			<g>
				<g>
					<g>
						<g>
							<path fill="#F9B233" d="M237,121.7c-1.3-1-2-2.7-1.5-4.4c0.6-2.2,2.9-3.4,5.1-2.8c2.2,0.6,3.4,2.9,2.8,5.1
								c-0.3,1-0.9,1.8-1.7,2.3"/>
							<path fill="#43423C" d="M241.7,122.8c-0.3,0-0.6-0.2-0.8-0.5c-0.3-0.5-0.2-1.1,0.3-1.4c0.6-0.4,1.1-1,1.3-1.7
								c0.5-1.6-0.5-3.4-2.1-3.8c-1.6-0.5-3.4,0.5-3.8,2.1c-0.4,1.2,0.1,2.6,1.1,3.3c0.4,0.3,0.5,1,0.2,1.4c-0.3,0.4-1,0.5-1.4,0.2
								c-1.7-1.3-2.4-3.5-1.9-5.5c0.8-2.7,3.6-4.3,6.3-3.5c2.7,0.8,4.3,3.6,3.5,6.3c-0.3,1.2-1.1,2.2-2.1,2.9
								C242.1,122.7,241.9,122.8,241.7,122.8z"/>
						</g>
						<g>
							<polyline fill="#F9B233" points="242.1,121.5 237.8,124.7 236,123.6 237.5,120.8 							"/>
							<path fill="#43423C" d="M237.8,125.7c-0.2,0-0.4,0-0.5-0.1l-1.9-1.1c-0.5-0.3-0.6-0.9-0.4-1.3l1.5-2.8
								c0.3-0.5,0.9-0.7,1.4-0.4c0.5,0.3,0.7,0.9,0.4,1.4l-1.1,2l0.5,0.3l3.8-2.8c0.4-0.3,1.1-0.2,1.4,0.2s0.2,1.1-0.2,1.4l-4.3,3.2
								C238.3,125.7,238,125.7,237.8,125.7z"/>
						</g>
					</g>
				</g>
			</g>
		</g>
	</g>
	<g>
		<g>
			<rect x="66.9" y="33.5" fill="#6CAEAB" width="14.8" height="14.8"/>
			<path fill="#43423C" d="M81.6,49.3H66.9c-0.6,0-1-0.4-1-1V33.5c0-0.6,0.4-1,1-1h14.8c0.6,0,1,0.4,1,1v14.8
				C82.6,48.8,82.2,49.3,81.6,49.3z M67.9,47.3h12.8V34.5H67.9V47.3z"/>
		</g>
	</g>
	<g>
		<g>
			<rect x="41.6" y="33.5" fill="#E5E2D1" width="14.8" height="14.8"/>
			<path fill="#43423C" d="M56.4,49.3H41.6c-0.6,0-1-0.4-1-1V33.5c0-0.6,0.4-1,1-1h14.8c0.6,0,1,0.4,1,1v14.8
				C57.4,48.8,56.9,49.3,56.4,49.3z M42.6,47.3h12.8V34.5H42.6V47.3z"/>
		</g>
	</g>
	<g>
		<rect x="155.2" y="105.9" fill="#F9B233" width="27.2" height="27.2"/>
		<path fill="#43423C" d="M182.5,134.1h-27.2c-0.6,0-1-0.4-1-1v-27.2c0-0.6,0.4-1,1-1h27.2c0.6,0,1,0.4,1,1v27.2
			C183.5,133.7,183,134.1,182.5,134.1z M156.2,132.1h25.2v-25.2h-25.2V132.1z"/>
	</g>
	<g>
		<g>
			<g>
				<g>
					<path fill="#6CAEAB" d="M162.1,125l2.6-3.6c0.6-0.8,1.9-0.8,2.5,0l0.9,1.3l-1.7,2.3l4.2-5.7c0.6-0.8,1.9-0.8,2.5,0l4.1,5.7"/>
					<path fill="#43423C" d="M177.2,126c-0.3,0-0.6-0.1-0.8-0.4l-4.1-5.7c-0.1-0.2-0.3-0.2-0.4-0.2c0,0,0,0,0,0
						c-0.1,0-0.3,0-0.4,0.2l-4.2,5.7c-0.3,0.4-0.9,0.5-1.4,0.2c-0.4-0.3-0.5-0.9-0.2-1.4l1.3-1.8l-0.5-0.7c-0.1-0.2-0.3-0.2-0.4-0.2
						c0,0-0.3,0-0.4,0.2l-2.6,3.6c-0.3,0.4-1,0.5-1.4,0.2c-0.4-0.3-0.5-0.9-0.2-1.4l2.6-3.6c0.5-0.7,1.2-1,2.1-1
						c0.8,0,1.6,0.4,2,1.1l0.1,0.1l1.6-2.3c0.5-0.7,1.2-1,2-1c0,0,0,0,0,0c0.8,0,1.6,0.4,2,1.1l4.1,5.7c0.3,0.4,0.2,1.1-0.2,1.4
						C177.6,125.9,177.4,126,177.2,126z"/>
				</g>
			</g>
			<g>
				<circle fill="#6CAEAB" cx="165.1" cy="114.3" r="1.8"/>
				<path fill="#43423C" d="M165.1,117.1c-1.6,0-2.8-1.3-2.8-2.8s1.3-2.8,2.8-2.8s2.8,1.3,2.8,2.8S166.7,117.1,165.1,117.1z
					 M165.1,113.5c-0.5,0-0.8,0.4-0.8,0.8s0.4,0.8,0.8,0.8s0.8-0.4,0.8-0.8S165.6,113.5,165.1,113.5z"/>
			</g>
		</g>
		<g>
			<g>
				<line fill="#6CAEAB" x1="177.9" y1="125" x2="161.4" y2="125"/>
				<path fill="#43423C" d="M177.9,126h-16.4c-0.6,0-1-0.4-1-1s0.4-1,1-1h16.4c0.6,0,1,0.4,1,1S178.4,126,177.9,126z"/>
			</g>
		</g>
	</g>
	<g>
		<g>
			<rect x="97.5" y="155.6" fill="#F47757" width="20.9" height="20.9"/>
			<path fill="#43423C" d="M118.5,177.5H97.5c-0.6,0-1-0.4-1-1v-20.9c0-0.6,0.4-1,1-1h20.9c0.6,0,1,0.4,1,1v20.9
				C119.5,177.1,119,177.5,118.5,177.5z M98.5,175.5h18.9v-18.9H98.5V175.5z"/>
		</g>
		<g>
			<g>
				<g>
					<g>
						<path fill="#FFFFFF" d="M100.5,172.3l2.6-3.6c0.6-0.8,1.9-0.8,2.5,0l0.9,1.3l-1.7,2.3l4.2-5.7c0.6-0.8,1.9-0.8,2.5,0l4.1,5.7"
							/>
						<path fill="#43423C" d="M115.5,173.3c-0.3,0-0.6-0.1-0.8-0.4l-4.1-5.7c-0.1-0.2-0.3-0.2-0.4-0.2c0,0,0,0,0,0
							c-0.1,0-0.3,0-0.4,0.2l-4.2,5.7c-0.3,0.4-1,0.5-1.4,0.2c-0.4-0.3-0.5-0.9-0.2-1.4l1.3-1.8l-0.5-0.7c-0.1-0.2-0.3-0.2-0.4-0.2
							c-0.1,0-0.3,0-0.4,0.2l-2.6,3.6c-0.3,0.4-1,0.5-1.4,0.2c-0.4-0.3-0.5-0.9-0.2-1.4l2.6-3.6c0.5-0.7,1.2-1,2-1c0,0,0,0,0,0
							c0.8,0,1.6,0.4,2,1.1l0.1,0.1l1.6-2.3c0.5-0.7,1.2-1,2-1c0,0,0,0,0,0c0.8,0,1.6,0.4,2,1.1l4.1,5.7c0.3,0.4,0.2,1.1-0.2,1.4
							C115.9,173.3,115.7,173.3,115.5,173.3z"/>
					</g>
				</g>
				<g>
					<circle fill="#FFFFFF" cx="103.5" cy="161.6" r="1.8"/>
					<path fill="#43423C" d="M103.5,164.5c-1.6,0-2.8-1.3-2.8-2.8s1.3-2.8,2.8-2.8s2.8,1.3,2.8,2.8S105,164.5,103.5,164.5z
						 M103.5,160.8c-0.5,0-0.8,0.4-0.8,0.8s0.4,0.8,0.8,0.8s0.8-0.4,0.8-0.8S103.9,160.8,103.5,160.8z"/>
				</g>
			</g>
			<g>
				<g>
					<path fill="#43423C" d="M116.2,173.3H99.8c-0.6,0-1-0.4-1-1s0.4-1,1-1h16.4c0.6,0,1,0.4,1,1S116.8,173.3,116.2,173.3z"/>
				</g>
			</g>
		</g>
	</g>
	<g>
		<g>
			<rect x="193.1" y="33.5" fill="#FFFFFF" width="14.8" height="14.8"/>
			<path fill="#43423C" d="M207.9,49.3h-14.8c-0.6,0-1-0.4-1-1V33.5c0-0.6,0.4-1,1-1h14.8c0.6,0,1,0.4,1,1v14.8
				C208.9,48.8,208.4,49.3,207.9,49.3z M194.1,47.3h12.8V34.5h-12.8V47.3z"/>
		</g>
	</g>
	<g>
		<g>
			<rect x="79.5" y="105.9" fill="#6CAEAB" width="27.2" height="27.2"/>
			<path fill="#43423C" d="M106.7,134.1H79.5c-0.6,0-1-0.4-1-1v-27.2c0-0.6,0.4-1,1-1h27.2c0.6,0,1,0.4,1,1v27.2
				C107.7,133.7,107.3,134.1,106.7,134.1z M80.5,132.1h25.2v-25.2H80.5V132.1z"/>
		</g>
		<g>
			<g>
				<g>
					<path fill="#F9B233" d="M90.1,128.8c-0.1,0-1.3,0-1.3-1.6c0-0.7,0.2-1.2,0.6-1.6c0.3-0.3,0.8-0.4,1.3-0.4c0,0,0.2,0,0.2,0
						v-11.3H89l-0.3,0.9c-0.1,0.3-0.5,1-1.5,1c-0.8,0-1.3-0.4-1.6-0.7c-0.2-0.3-0.3-0.6-0.3-0.9c0,0,0-0.1,0-0.2l0.4-3
						c0.1-0.5,0.5-0.9,1-0.9h12.8c0.5,0,0.9,0.4,1,0.9l0.4,3c0,0,0,0.1,0,0.1c0,0.3-0.1,1.3-1.4,1.6c-0.1,0-0.3,0.1-0.5,0.1
						c0,0-0.1,0-0.1,0c-0.7,0-1.2-0.4-1.4-1l-0.3-1h-1.9v11.3h0.9c0.1,0,1.3,0,1.3,1.6c0,0.5-0.1,1.1-0.5,1.5
						c-0.3,0.3-0.6,0.5-1,0.5H90.1z"/>
				</g>
				<g>
					<path fill="#43423C" d="M99.5,111.2l0.4,3v0c0,0.3-0.2,0.4-0.6,0.5c-0.1,0-0.2,0-0.3,0c0,0,0,0-0.1,0c-0.3,0-0.5-0.1-0.5-0.3
						l-0.5-1.6h-3.7v13.3h1.8c0.2,0,0.3,0.2,0.3,0.6s-0.1,0.7-0.2,0.8s-0.2,0.2-0.3,0.2h-5.8c-0.2,0-0.3-0.2-0.3-0.6
						c0-0.4,0.1-0.7,0.3-0.9c0.1-0.1,0.3-0.1,0.6-0.1c0,0,0.1,0,0.1,0c0.7,0,1.1-0.2,1.1-0.5v-12.9h-3.7l-0.5,1.6
						c-0.1,0.2-0.3,0.3-0.6,0.3c0,0,0,0,0,0c-0.3,0-0.6-0.1-0.8-0.3c-0.1-0.1-0.1-0.1-0.1-0.2v0l0.4-3H99.5 M99.5,109.2H86.7
						c-1,0-1.8,0.7-2,1.7l-0.4,3c0,0.1,0,0.2,0,0.3c0,0.6,0.2,1.1,0.5,1.5c0,0,0,0,0.1,0.1c0.6,0.7,1.4,1,2.3,1c0,0,0,0,0,0
						c1.4,0,2.2-0.8,2.5-1.6c0,0,0-0.1,0-0.1l0.1-0.2h0.2v9.4c-0.4,0.1-0.8,0.2-1.2,0.6c-0.4,0.4-0.9,1.1-0.9,2.3
						c0,1.8,1.2,2.6,2.3,2.6h5.8c0.4,0,1.1-0.1,1.7-0.8c0.7-0.7,0.8-1.6,0.8-2.2c0-1.7-1.1-2.5-2.1-2.6v-9.3h0.2l0.1,0.2
						c0,0,0,0.1,0,0.1c0.3,1,1.2,1.6,2.4,1.6c0,0,0.1,0,0.1,0c0.2,0,0.5,0,0.7-0.1c1.6-0.4,2.1-1.6,2.1-2.5c0-0.1,0-0.2,0-0.3
						l-0.4-3C101.3,109.9,100.5,109.2,99.5,109.2L99.5,109.2z"/>
				</g>
			</g>
		</g>
	</g>
	<g>
		<g>
			<rect x="125.5" y="155.6" fill="#E5E2D1" width="20.9" height="20.9"/>
			<path fill="#43423C" d="M146.4,177.5h-20.9c-0.6,0-1-0.4-1-1v-20.9c0-0.6,0.4-1,1-1h20.9c0.6,0,1,0.4,1,1v20.9
				C147.4,177.1,147,177.5,146.4,177.5z M126.5,175.5h18.9v-18.9h-18.9V175.5z"/>
		</g>
	</g>
	<g>
		<g>
			<rect x="41.6" y="54.3" fill="#F47757" width="45.9" height="45.9"/>
			<path fill="#43423C" d="M87.5,101.2H41.6c-0.6,0-1-0.4-1-1V54.3c0-0.6,0.4-1,1-1h45.9c0.6,0,1,0.4,1,1v45.9
				C88.5,100.8,88,101.2,87.5,101.2z M42.6,99.2h43.9V55.3H42.6V99.2z"/>
		</g>
		<g>
			<g>
				<g>
					<path fill="#E5E2D1" d="M59.5,92.2c-0.3,0-1.4-0.1-1.4-2c0-0.9,0.3-1.7,0.8-2.2c0.4-0.4,0.9-0.4,1.7-0.4l0.2,0
						c0.4,0,0.7,0,0.8-0.1V67.2h-4.4l-0.6,2c-0.2,0.5-0.6,1.2-1.9,1.2c-0.9,0-1.6-0.3-2.1-0.9c-0.3-0.4-0.4-0.8-0.4-1
						c0,0,0-0.2,0-0.2l0.7-5c0.1-0.5,0.5-0.9,1-0.9h21.4c0.5,0,0.9,0.4,1,0.9l0.7,5c0,0,0,0.1,0,0.1c0,0.5-0.2,1.6-1.8,1.9
						c-0.2,0.1-0.4,0.1-0.7,0.1c-0.1,0-0.2,0-0.2,0c-1.2,0-1.6-0.8-1.8-1.2l-0.6-2.1h-4.4v20.4h2.1c0.4,0,1.5,0.1,1.5,2
						c0,1-0.2,1.6-0.6,2c-0.1,0.1-0.6,0.6-1.2,0.6H59.5z"/>
				</g>
				<g>
					<path fill="#43423C" d="M75.3,63.4l0.7,5v0.1c0,0.4-0.3,0.7-1,0.9c-0.1,0-0.3,0.1-0.5,0.1c0,0-0.1,0-0.1,0
						c-0.5,0-0.8-0.2-0.9-0.5l-0.8-2.7h-6.2v22.4h3.1c0.3,0,0.5,0.3,0.5,1c0,0.7-0.1,1.1-0.3,1.3c-0.2,0.2-0.3,0.3-0.5,0.3h-9.8
						c-0.3,0-0.4-0.3-0.4-1s0.2-1.2,0.5-1.5c0.1-0.1,0.4-0.1,1-0.1c0.1,0,0.1,0,0.2,0c1.2,0,1.8-0.3,1.8-0.8V66.2h-6.2L55.6,69
						c-0.1,0.3-0.4,0.5-1,0.5c0,0,0,0,0,0c-0.6,0-1-0.2-1.3-0.6c-0.1-0.1-0.1-0.2-0.1-0.4v-0.1l0.7-5H75.3 M75.3,61.4H53.8
						c-1,0-1.8,0.7-2,1.7l-0.7,5c0,0.1,0,0.2,0,0.3v0.1c0,0.6,0.2,1.1,0.6,1.6c0,0,0,0,0.1,0.1c0.7,0.8,1.7,1.2,2.8,1.3
						c0,0,0,0,0.1,0c2.1,0,2.7-1.4,2.9-1.8c0,0,0-0.1,0-0.1l0.4-1.3h2.7v18.3c-0.8,0-1.8,0.1-2.4,0.7c-0.5,0.5-1.1,1.4-1.1,2.9
						c0,2.9,2.2,3,2.4,3h9.8c0.7,0,1.3-0.3,1.9-0.9c0.8-0.8,0.9-1.9,0.9-2.7c0-2.4-1.6-3-2.5-3h-1.1V68.2h2.7l0.4,1.3
						c0,0,0,0.1,0,0.1c0.4,1.1,1.4,1.8,2.7,1.8c0.1,0,0.1,0,0.2,0c0.3,0,0.6,0,0.9-0.1c1.9-0.4,2.5-1.7,2.5-2.8v-0.1
						c0-0.1,0-0.2,0-0.3l-0.7-5C77.1,62.1,76.3,61.4,75.3,61.4L75.3,61.4z"/>
				</g>
			</g>
		</g>
	</g>
	<g>
		<g>
			<rect x="142.6" y="33.5" fill="#F47757" width="14.8" height="14.8"/>
			<path fill="#43423C" d="M157.4,49.3h-14.8c-0.6,0-1-0.4-1-1V33.5c0-0.6,0.4-1,1-1h14.8c0.6,0,1,0.4,1,1v14.8
				C158.4,48.8,157.9,49.3,157.4,49.3z M143.6,47.3h12.8V34.5h-12.8V47.3z"/>
		</g>
	</g>
	<g>
		<g>
			<rect x="243.6" y="33.5" fill="#43423C" width="14.8" height="14.8"/>
			<path fill="#43423C" d="M258.4,49.3h-14.8c-0.6,0-1-0.4-1-1V33.5c0-0.6,0.4-1,1-1h14.8c0.6,0,1,0.4,1,1v14.8
				C259.4,48.8,258.9,49.3,258.4,49.3z M244.6,47.3h12.8V34.5h-12.8V47.3z"/>
		</g>
	</g>
	<g>
		<g>
			<rect x="167.9" y="33.5" fill="#6CAEAB" width="14.8" height="14.8"/>
			<path fill="#43423C" d="M182.6,49.3h-14.8c-0.6,0-1-0.4-1-1V33.5c0-0.6,0.4-1,1-1h14.8c0.6,0,1,0.4,1,1v14.8
				C183.6,48.8,183.2,49.3,182.6,49.3z M168.9,47.3h12.8V34.5h-12.8V47.3z"/>
		</g>
	</g>
	<g>
		<g>
			<rect x="41.6" y="155.6" fill="#F9B233" width="20.9" height="20.9"/>
			<path fill="#43423C" d="M62.6,177.5H41.6c-0.6,0-1-0.4-1-1v-20.9c0-0.6,0.4-1,1-1h20.9c0.6,0,1,0.4,1,1v20.9
				C63.6,177.1,63.1,177.5,62.6,177.5z M42.6,175.5h18.9v-18.9H42.6V175.5z"/>
		</g>
	</g>
	<g>
		<g>
			<rect x="181.4" y="155.6" fill="#43423C" width="20.9" height="20.9"/>
			<path fill="#43423C" d="M202.3,177.5h-20.9c-0.6,0-1-0.4-1-1v-20.9c0-0.6,0.4-1,1-1h20.9c0.6,0,1,0.4,1,1v20.9
				C203.3,177.1,202.9,177.5,202.3,177.5z M182.4,175.5h18.9v-18.9h-18.9V175.5z"/>
		</g>
	</g>
	<g>
		<g>
			<rect x="209.4" y="155.6" fill="#F47757" width="20.9" height="20.9"/>
			<path fill="#43423C" d="M230.3,177.5h-20.9c-0.6,0-1-0.4-1-1v-20.9c0-0.6,0.4-1,1-1h20.9c0.6,0,1,0.4,1,1v20.9
				C231.3,177.1,230.9,177.5,230.3,177.5z M210.4,175.5h18.9v-18.9h-18.9V175.5z"/>
		</g>
		<g>
			<g>
				<g>
					<g>
						<path fill="#FFFFFF" d="M212.3,172.3l2.6-3.6c0.6-0.8,1.9-0.8,2.5,0l0.9,1.3l-1.7,2.3l4.2-5.7c0.6-0.8,1.9-0.8,2.5,0l4.1,5.7"
							/>
						<path fill="#43423C" d="M227.3,173.3c-0.3,0-0.6-0.1-0.8-0.4l-4.1-5.7c-0.1-0.2-0.3-0.2-0.4-0.2c0,0,0,0,0,0
							c-0.1,0-0.3,0-0.4,0.2l-4.2,5.7c-0.3,0.4-1,0.5-1.4,0.2c-0.4-0.3-0.5-0.9-0.2-1.4l0,0l1.3-1.8l-0.5-0.7
							c-0.1-0.2-0.3-0.2-0.4-0.2c-0.1,0-0.3,0-0.4,0.2l-2.6,3.6c-0.3,0.4-0.9,0.5-1.4,0.2c-0.4-0.3-0.5-0.9-0.2-1.4l2.6-3.6
							c0.5-0.7,1.2-1,2-1c0,0,0,0,0,0c0.8,0,1.6,0.4,2,1.1l0.1,0.1l1.6-2.3c0.5-0.7,1.2-1,2-1c0,0,0,0,0,0c0.8,0,1.6,0.4,2,1.1
							l4.1,5.7c0.3,0.4,0.2,1.1-0.2,1.4C227.7,173.3,227.5,173.3,227.3,173.3z"/>
					</g>
				</g>
				<g>
					<circle fill="#FFFFFF" cx="215.3" cy="161.6" r="1.8"/>
					<path fill="#43423C" d="M215.3,164.5c-1.6,0-2.8-1.3-2.8-2.8s1.3-2.8,2.8-2.8s2.8,1.3,2.8,2.8S216.8,164.5,215.3,164.5z
						 M215.3,160.8c-0.5,0-0.8,0.4-0.8,0.8s0.4,0.8,0.8,0.8s0.8-0.4,0.8-0.8S215.7,160.8,215.3,160.8z"/>
				</g>
			</g>
			<g>
				<g>
					<path fill="#43423C" d="M228,173.3h-16.4c-0.6,0-1-0.4-1-1s0.4-1,1-1H228c0.6,0,1,0.4,1,1S228.6,173.3,228,173.3z"/>
				</g>
			</g>
		</g>
	</g>
	<g>
		<g>
			<rect x="237.3" y="155.6" fill="#E5E2D1" width="20.9" height="20.9"/>
			<path fill="#43423C" d="M258.3,177.5h-20.9c-0.6,0-1-0.4-1-1v-20.9c0-0.6,0.4-1,1-1h20.9c0.6,0,1,0.4,1,1v20.9
				C259.3,177.1,258.8,177.5,258.3,177.5z M238.3,175.5h18.9v-18.9h-18.9V175.5z"/>
		</g>
		<g>
			<g>
				<g>
					<path fill="#F9B233" d="M246.1,171.3c-0.5,0-1.1-0.4-1.1-1.3c0-0.6,0.2-1,0.5-1.2c0.2-0.2,0.4-0.3,0.6-0.3v-4.6H246l0,0.1
						c-0.2,0.4-0.5,0.9-1.2,0.9c-0.5,0-0.9-0.2-1.2-0.5c-0.2-0.2-0.3-0.5-0.3-0.8c0,0,0-0.1,0-0.2l0.2-1.5c0.1-0.5,0.5-0.9,1-0.9
						h6.3c0.5,0,0.9,0.4,1,0.9l0.2,1.5c0,0,0,0.1,0,0.1c0,0.5-0.3,1.1-1.1,1.3c-0.1,0-0.2,0-0.3,0c0,0-0.1,0-0.1,0
						c-0.6,0-1-0.4-1.1-0.8l0-0.1h-0.1v4.6c0.5,0,1.1,0.4,1.1,1.3c0,0.3,0,0.8-0.4,1.1c-0.3,0.3-0.5,0.4-0.8,0.4H246.1z"/>
				</g>
				<g>
					<path fill="#43423C" d="M250.8,162l0.2,1.5v0c0,0.1-0.1,0.2-0.3,0.3c0,0-0.1,0-0.1,0c0,0,0,0,0,0c-0.1,0-0.2,0-0.3-0.1
						l-0.2-0.8h-1.8v6.6h0.9c0.1,0,0.1,0.1,0.1,0.3s0,0.3-0.1,0.4c-0.1,0.1-0.1,0.1-0.1,0.1h-2.9c-0.1,0-0.1-0.1-0.1-0.3
						s0-0.3,0.1-0.4c0,0,0.1,0,0.3,0c0,0,0,0,0.1,0c0.4,0,0.5-0.1,0.5-0.2v-6.4h-1.8l-0.2,0.8c0,0.1-0.1,0.1-0.3,0.1c0,0,0,0,0,0
						c-0.2,0-0.3-0.1-0.4-0.2c0,0,0-0.1,0-0.1v0l0.2-1.5H250.8 M250.8,160h-6.3c-1,0-1.8,0.7-2,1.7l-0.2,1.5c0,0.1,0,0.2,0,0.3
						c0,0.5,0.2,1,0.5,1.4c0,0,0,0,0,0.1c0.5,0.5,1.1,0.8,1.9,0.9c0.1,0,0.3,0,0.4,0v2.1c-0.1,0.1-0.2,0.2-0.3,0.3
						c-0.5,0.4-0.7,1.1-0.7,1.9c0,1.5,1.1,2.3,2.1,2.3h2.9c0.4,0,1-0.1,1.6-0.7c0.4-0.4,0.7-1,0.7-1.8c0-1-0.5-1.6-1.1-2v-2
						c0.1,0,0.2,0,0.3,0c0,0,0.1,0,0.1,0c0.2,0,0.4,0,0.6-0.1c1.3-0.3,1.8-1.3,1.8-2.2c0-0.1,0-0.2,0-0.3l-0.2-1.5
						C252.6,160.8,251.8,160,250.8,160L250.8,160z"/>
				</g>
			</g>
		</g>
	</g>
	<g>
		<g>
			<rect x="153.4" y="155.6" fill="#F9B233" width="20.9" height="20.9"/>
			<path fill="#43423C" d="M174.4,177.5h-20.9c-0.6,0-1-0.4-1-1v-20.9c0-0.6,0.4-1,1-1h20.9c0.6,0,1,0.4,1,1v20.9
				C175.4,177.1,174.9,177.5,174.4,177.5z M154.4,175.5h18.9v-18.9h-18.9V175.5z"/>
		</g>
		<g>
			<path fill="#F47757" d="M169.1,164.8c1,0.6,1,2,0,2.6l-4.3,2.5l-4.3,2.5c-1,0.6-2.3-0.1-2.3-1.3l0-5l0-5c0-1.2,1.3-1.9,2.3-1.3
				l4.3,2.5L169.1,164.8z"/>
			<path fill="#43423C" d="M159.8,173.7c-1.4,0-2.5-1.1-2.5-2.5l0-10c0-0.7,0.3-1.3,0.7-1.8c0.8-0.8,2.1-1,3-0.4l8.6,5
				c0.8,0.5,1.3,1.3,1.3,2.2c0,0.9-0.5,1.7-1.3,2.2l-8.6,5C160.6,173.5,160.2,173.7,159.8,173.7z M159.7,160.7
				c-0.1,0-0.3,0.1-0.4,0.2c-0.1,0.1-0.1,0.2-0.1,0.4l0,10c0,0.4,0.5,0.6,0.8,0.4l8.6-5c0.2-0.1,0.3-0.4,0.3-0.4
				c0-0.1,0-0.3-0.3-0.4l-8.6-5C159.9,160.7,159.8,160.7,159.7,160.7z"/>
		</g>
	</g>
	<g>
		<g>
			<g>
				<g>
					<path fill="#FFFFFF" d="M164.1,89.8l5.4-7.4c1.3-1.7,3.9-1.7,5.1,0l1.8,2.6l-3.5,4.8l8.6-11.8c1.3-1.7,3.9-1.7,5.1,0l8.4,11.8"
						/>
					<path fill="#43423C" d="M195,90.8c-0.3,0-0.6-0.1-0.8-0.4l-8.4-11.8c-0.4-0.6-1-0.9-1.7-0.9c0,0,0,0,0,0
						c-0.7,0-1.3,0.3-1.7,0.9l-8.6,11.8c-0.3,0.4-1,0.5-1.4,0.2c-0.4-0.3-0.5-0.9-0.2-1.4l3.1-4.3l-1.4-2c-0.4-0.6-1-0.9-1.7-0.9
						c0,0,0,0,0,0c-0.7,0-1.3,0.3-1.7,0.9l-5.4,7.4c-0.3,0.4-1,0.5-1.4,0.2c-0.4-0.3-0.5-0.9-0.2-1.4l5.4-7.4c0.8-1.1,2-1.7,3.4-1.7
						c1.4,0,2.6,0.6,3.4,1.7l1,1.4l4.2-5.9c0.8-1.1,2-1.7,3.4-1.7c0,0,0,0,0,0c1.4,0,2.6,0.6,3.4,1.7l8.4,11.8
						c0.3,0.4,0.2,1.1-0.2,1.4C195.4,90.7,195.2,90.8,195,90.8z"/>
				</g>
			</g>
			<g>
				<circle fill="#FFFFFF" cx="170.2" cy="67.8" r="3.8"/>
				<path fill="#43423C" d="M170.2,72.5c-2.6,0-4.8-2.1-4.8-4.8s2.1-4.8,4.8-4.8s4.8,2.1,4.8,4.8S172.9,72.5,170.2,72.5z M170.2,65
					c-1.5,0-2.8,1.2-2.8,2.8s1.2,2.8,2.8,2.8s2.8-1.2,2.8-2.8S171.8,65,170.2,65z"/>
			</g>
		</g>
		<g>
			<g>
				<path fill="#43423C" d="M196.5,90.8h-33.8c-0.6,0-1-0.4-1-1s0.4-1,1-1h33.8c0.6,0,1,0.4,1,1S197.1,90.8,196.5,90.8z"/>
			</g>
		</g>
	</g>
	<g>
		<g>
			<g>
				<g>
					<g>
						<path fill="#F47757" d="M240.7,81.3c-2-1.5-3-4.2-2.3-6.8c1-3.3,4.4-5.3,7.8-4.3c3.3,1,5.3,4.4,4.3,7.8
							c-0.4,1.5-1.4,2.7-2.6,3.5"/>
						<path fill="#43423C" d="M247.9,82.5c-0.3,0-0.6-0.2-0.8-0.5c-0.3-0.5-0.2-1.1,0.3-1.4c1.1-0.7,1.8-1.7,2.2-3
							c0.8-2.8-0.8-5.7-3.6-6.5c-2.8-0.8-5.7,0.8-6.5,3.6c-0.6,2.1,0.2,4.4,1.9,5.7c0.4,0.3,0.5,1,0.2,1.4c-0.3,0.4-1,0.5-1.4,0.2
							c-2.4-1.8-3.5-5-2.6-7.9c0.5-1.9,1.8-3.4,3.5-4.4c1.7-0.9,3.7-1.2,5.5-0.6c1.9,0.5,3.4,1.8,4.4,3.5c0.9,1.7,1.2,3.7,0.6,5.5
							c-0.5,1.7-1.5,3.1-3,4.1C248.3,82.4,248.1,82.5,247.9,82.5z"/>
					</g>
					<g>
						<polyline fill="#F47757" points="248.6,81 242,85.9 239.1,84.2 241.5,79.9 						"/>
						<path fill="#43423C" d="M242,86.9c-0.2,0-0.4,0-0.5-0.1l-2.9-1.7c-0.5-0.3-0.6-0.9-0.4-1.3l2.4-4.3c0.3-0.5,0.9-0.7,1.4-0.4
							c0.5,0.3,0.7,0.9,0.4,1.4l-1.9,3.4l1.5,0.9l6.1-4.6c0.4-0.3,1.1-0.2,1.4,0.2c0.3,0.4,0.2,1.1-0.2,1.4l-6.6,5
							C242.4,86.9,242.2,86.9,242,86.9z"/>
					</g>
				</g>
			</g>
		</g>
		<g>
			<g>
				<g>
					<g>
						<path fill="#F47757" d="M223.7,81.3c-2-1.5-3-4.2-2.3-6.8c1-3.3,4.4-5.3,7.8-4.3c3.3,1,5.3,4.4,4.3,7.8
							c-0.4,1.5-1.4,2.7-2.6,3.5"/>
						<path fill="#43423C" d="M230.9,82.5c-0.3,0-0.6-0.2-0.8-0.5c-0.3-0.5-0.2-1.1,0.3-1.4c1.1-0.7,1.8-1.7,2.2-3
							c0.8-2.8-0.8-5.7-3.6-6.5c-2.8-0.8-5.7,0.8-6.5,3.6c-0.6,2.1,0.2,4.4,1.9,5.7c0.4,0.3,0.5,1,0.2,1.4c-0.3,0.4-1,0.5-1.4,0.2
							c-2.4-1.8-3.5-5-2.6-7.9c0.5-1.9,1.8-3.4,3.5-4.4c1.7-0.9,3.7-1.2,5.5-0.6c1.9,0.5,3.4,1.8,4.4,3.5c0.9,1.7,1.2,3.7,0.6,5.5
							c-0.5,1.7-1.5,3.1-3,4.1C231.2,82.4,231.1,82.5,230.9,82.5z"/>
					</g>
					<g>
						<polyline fill="#F47757" points="231.5,81 224.9,85.9 222,84.2 224.4,79.9 						"/>
						<path fill="#43423C" d="M224.9,86.9c-0.2,0-0.4,0-0.5-0.1l-2.9-1.7c-0.5-0.3-0.6-0.9-0.4-1.3l2.4-4.3c0.3-0.5,0.9-0.7,1.4-0.4
							c0.5,0.3,0.7,0.9,0.4,1.4l-1.9,3.4l1.5,0.9l6.1-4.6c0.4-0.3,1.1-0.2,1.4,0.2c0.3,0.4,0.2,1.1-0.2,1.4l-6.6,5
							C225.3,86.9,225.1,86.9,224.9,86.9z"/>
					</g>
				</g>
			</g>
		</g>
	</g>
	<g>
		<g>
			<g>
				<g>
					<g>
						<path fill="#F47757" d="M54.3,167.6c-1-0.7-1.4-2-1.1-3.2c0.5-1.6,2.1-2.5,3.7-2.1s2.5,2.1,2.1,3.7c-0.2,0.7-0.7,1.3-1.2,1.7"
							/>
						<path fill="#43423C" d="M57.7,168.7c-0.3,0-0.6-0.2-0.8-0.5c-0.3-0.5-0.2-1.1,0.3-1.4c0.4-0.3,0.7-0.7,0.8-1.1
							c0.3-1.1-0.3-2.2-1.4-2.5c-1.1-0.3-2.2,0.3-2.5,1.4c-0.2,0.8,0.1,1.7,0.7,2.2c0.4,0.3,0.5,1,0.2,1.4c-0.3,0.4-1,0.5-1.4,0.2
							c-1.3-1-1.9-2.7-1.5-4.3c0.3-1,1-1.9,1.9-2.4c0.9-0.5,2-0.6,3-0.3c1,0.3,1.9,1,2.4,1.9c0.5,0.9,0.6,2,0.3,3
							c-0.3,0.9-0.8,1.7-1.7,2.2C58.1,168.7,57.9,168.7,57.7,168.7z"/>
					</g>
					<g>
						<polyline fill="#F47757" points="58,167.5 54.9,169.9 53.5,169 54.6,167 						"/>
						<path fill="#43423C" d="M54.9,170.9c-0.2,0-0.4,0-0.5-0.1l-1.4-0.8c-0.5-0.3-0.6-0.9-0.4-1.3l1.1-2c0.3-0.5,0.9-0.7,1.4-0.4
							c0.5,0.3,0.7,0.9,0.4,1.4l-0.6,1.1l2.5-1.9c0.4-0.3,1.1-0.2,1.4,0.2c0.3,0.4,0.2,1.1-0.2,1.4l-3.2,2.4
							C55.3,170.8,55.1,170.9,54.9,170.9z"/>
					</g>
				</g>
			</g>
		</g>
		<g>
			<g>
				<g>
					<g>
						<path fill="#F47757" d="M46.1,167.6c-1-0.7-1.4-2-1.1-3.2c0.5-1.6,2.1-2.5,3.7-2.1s2.5,2.1,2.1,3.7c-0.2,0.7-0.7,1.3-1.2,1.7"
							/>
						<path fill="#43423C" d="M49.6,168.7c-0.3,0-0.6-0.2-0.8-0.5c-0.3-0.5-0.2-1.1,0.3-1.4c0.4-0.3,0.7-0.7,0.8-1.1
							c0.3-1.1-0.3-2.2-1.4-2.5c-1.1-0.3-2.2,0.3-2.5,1.4c-0.2,0.8,0.1,1.7,0.7,2.2c0.4,0.3,0.5,1,0.2,1.4c-0.3,0.4-1,0.5-1.4,0.2
							c-1.3-1-1.9-2.7-1.5-4.3c0.3-1,1-1.9,1.9-2.4c0.9-0.5,2-0.6,3-0.3c1,0.3,1.9,1,2.4,1.9c0.5,0.9,0.6,2,0.3,3
							c-0.3,0.9-0.8,1.7-1.7,2.2C49.9,168.7,49.8,168.7,49.6,168.7z"/>
					</g>
					<g>
						<polyline fill="#F47757" points="49.9,167.5 46.7,169.9 45.4,169 46.5,167 						"/>
						<path fill="#43423C" d="M46.7,170.9c-0.2,0-0.4,0-0.5-0.1l-1.4-0.8c-0.5-0.3-0.6-0.9-0.4-1.3l1.1-2c0.3-0.5,0.9-0.7,1.4-0.4
							c0.5,0.3,0.7,0.9,0.4,1.4l-0.6,1.1l2.5-1.9c0.4-0.3,1.1-0.2,1.4,0.2s0.2,1.1-0.2,1.4l-3.2,2.4
							C47.1,170.8,46.9,170.9,46.7,170.9z"/>
					</g>
				</g>
			</g>
		</g>
	</g>
</g>
</svg>
