<?xml version="1.0" encoding="utf-8"?>
<!-- Generator: Adobe Illustrator 18.0.0, SVG Export Plug-In . SVG Version: 6.00 Build 0)  -->
<!DOCTYPE svg PUBLIC "-//W3C//DTD SVG 1.1//EN" "http://www.w3.org/Graphics/SVG/1.1/DTD/svg11.dtd">
<svg version="1.1" id="deploy" xmlns="http://www.w3.org/2000/svg" xmlns:xlink="http://www.w3.org/1999/xlink" x="0px" y="0px"
	 viewBox="0 0 300 210" enable-background="new 0 0 300 210" xml:space="preserve">
<g>
	<rect x="-0.1" y="0" fill="#6CAEAB" width="300.1" height="210"/>
	<g>
		<g>
			<path fill="#F47757" stroke="#43423C" stroke-width="2" stroke-linejoin="round" stroke-miterlimit="10" d="M181,38.6
				c0-4.5-3.4-8.2-7.6-8.2l-80.3,0c-4.2,0-7.6,3.7-7.6,8.2l0,132.8c0,4.5,3.4,8.2,7.6,8.2l80.3,0c4.2,0,7.6-3.7,7.6-8.2L181,38.6z
				 M92.1,161.6l0-119.7l82.3,0l0,119.7L92.1,161.6z"/>
			
				<ellipse fill="#FFFFFF" stroke="#43423C" stroke-width="2" stroke-linejoin="round" stroke-miterlimit="10" cx="133.2" cy="170.2" rx="3.7" ry="3.9"/>
			
				<line fill="#43423C" stroke="#43423C" stroke-width="3" stroke-linecap="round" stroke-linejoin="round" stroke-miterlimit="10" x1="133.2" y1="36.3" x2="133.2" y2="36.3"/>
			<g>
				<g>
					<rect x="92.1" y="41.9" fill="#FFFFFF" width="82.9" height="119.7"/>
				</g>
				<g>
					<path fill="#43423C" d="M92.1,162.6c-0.3,0-0.5-0.1-0.7-0.3s-0.3-0.4-0.3-0.7l0-119.7c0-0.6,0.4-1,1-1l82.9,0
						c0.3,0,0.5,0.1,0.7,0.3s0.3,0.4,0.3,0.7l0,119.7c0,0.6-0.4,1-1,1L92.1,162.6z M93.1,42.9l0,117.7l80.9,0l0-117.7L93.1,42.9z"/>
				</g>
			</g>
			<g>
				<g>
					<rect x="96.4" y="96.6" fill="#43423C" width="74.3" height="6.4"/>
				</g>
			</g>
			<g>
				<g>
					<rect x="96.5" y="45.4" fill="#43423C" width="34.1" height="10.4"/>
				</g>
			</g>
			<g>
				<g>
					<rect x="135.1" y="45.4" fill="#F9B233" width="35.5" height="10.4"/>
				</g>
			</g>
			<g>
				<g>
					<rect x="96.4" y="130.3" fill="#43423C" width="74.3" height="9.4"/>
				</g>
			</g>
			<g>
				<g>
					<rect x="96.7" y="143.2" fill="#F47757" width="73.7" height="15.2"/>
				</g>
				<g>
					<path fill="#43423C" d="M170.5,159.5H96.7c-0.6,0-1-0.4-1-1v-15.2c0-0.6,0.4-1,1-1h73.7c0.6,0,1,0.4,1,1v15.2
						C171.5,159,171,159.5,170.5,159.5z M97.7,157.5h71.7v-13.2H97.7V157.5z"/>
				</g>
			</g>
			<g>
				<g>
					<rect x="96.5" y="60.4" fill="#6CAEAB" width="74" height="32.8"/>
				</g>
				<g>
					<path fill="#43423C" d="M170.5,94.2h-74c-0.6,0-1-0.4-1-1V60.4c0-0.6,0.4-1,1-1h74c0.6,0,1,0.4,1,1v32.8
						C171.5,93.8,171.1,94.2,170.5,94.2z M97.5,92.2h72V61.4h-72V92.2z"/>
				</g>
			</g>
			<g>
				<g>
					<rect x="96.5" y="106.6" fill="#F9B233" width="20.5" height="20.1"/>
				</g>
				<g>
					<path fill="#43423C" d="M116.9,127.7H96.5c-0.6,0-1-0.4-1-1v-20.1c0-0.6,0.4-1,1-1h20.5c0.6,0,1,0.4,1,1v20.1
						C117.9,127.2,117.5,127.7,116.9,127.7z M97.5,125.7h18.5v-18.1H97.5V125.7z"/>
				</g>
			</g>
			<g>
				<g>
					<rect x="121.8" y="106.6" fill="#F47757" width="48.8" height="20.1"/>
				</g>
				<g>
					<path fill="#43423C" d="M170.6,127.7h-48.8c-0.6,0-1-0.4-1-1v-20.1c0-0.6,0.4-1,1-1h48.8c0.6,0,1,0.4,1,1v20.1
						C171.6,127.2,171.2,127.7,170.6,127.7z M122.8,125.7h46.8v-18.1h-46.8V125.7z"/>
				</g>
			</g>
			<g>
				<g>
					
						<rect x="126.3" y="55.5" transform="matrix(0.7644 0.6448 -0.6448 0.7644 79.464 -63.9888)" fill="#43423C" width="2" height="42.5"/>
				</g>
			</g>
			<g>
				<g>
					
						<rect x="132.9" y="55.6" transform="matrix(0.7644 0.6448 -0.6448 0.7644 81.1341 -68.227)" fill="#43423C" width="2" height="42.5"/>
				</g>
			</g>
		</g>
		<g>
			<g>
				<g>
					<path fill="#F9B233" d="M214.5,65.6c0-2.7-2-4.8-4.5-4.8l-38.7,0c-2.5,0-4.5,2.2-4.5,4.8l0,78.8c0,2.7,2,4.8,4.5,4.8l38.7,0
						c2.5,0,4.5-2.2,4.5-4.8L214.5,65.6z M170.7,138.6l0-71.1l39.9,0l0,71.1L170.7,138.6z"/>
				</g>
				<g>
					<path fill="#43423C" d="M171.3,150.3L171.3,150.3c-3,0-5.5-2.6-5.5-5.8l0-78.8c0-3.2,2.5-5.8,5.5-5.8l38.7,0
						c3,0,5.5,2.6,5.5,5.8l0,78.8c0,3.2-2.5,5.8-5.5,5.8L171.3,150.3z M210,61.7l-38.7,0c-1.9,0-3.5,1.7-3.5,3.8l0,78.8
						c0,2.1,1.6,3.8,3.5,3.8l38.7,0c1.9,0,3.5-1.7,3.5-3.8l0-78.8C213.5,63.5,211.9,61.7,210,61.7z M170.7,139.6
						c-0.3,0-0.5-0.1-0.7-0.3s-0.3-0.4-0.3-0.7l0-71.1c0-0.6,0.4-1,1-1l39.9,0c0.3,0,0.5,0.1,0.7,0.3s0.3,0.4,0.3,0.7l0,71.1
						c0,0.6-0.4,1-1,1L170.7,139.6z M171.7,68.5l0,69.1l37.9,0l0-69.1L171.7,68.5z"/>
				</g>
			</g>
			<g>
				<g>
					<ellipse fill="#FFFFFF" cx="190.6" cy="143.7" rx="2.2" ry="2.3"/>
				</g>
				<g>
					<path fill="#43423C" d="M190.6,147.1c-0.9,0-1.7-0.4-2.3-1c-0.6-0.6-0.9-1.5-0.9-2.3c0-1.8,1.4-3.3,3.2-3.3
						c1.8,0,3.2,1.5,3.2,3.3C193.8,145.6,192.4,147.1,190.6,147.1z M190.6,142.4c-0.7,0-1.2,0.6-1.2,1.3c0,0.4,0.1,0.7,0.4,1
						c0.2,0.2,0.5,0.4,0.8,0.4h0c0.7,0,1.2-0.6,1.2-1.3C191.8,143,191.3,142.4,190.6,142.4z"/>
				</g>
			</g>
			<g>
				<g>
					<line fill="#43423C" x1="190.6" y1="64.2" x2="190.6" y2="64.2"/>
				</g>
				<g>
					<path fill="#43423C" d="M190.6,65.7c-0.4,0-0.8-0.2-1.1-0.4c-0.3-0.3-0.4-0.7-0.4-1.1c0-0.4,0.2-0.8,0.4-1.1
						c0.6-0.6,1.6-0.6,2.1,0c0.3,0.3,0.4,0.7,0.4,1.1c0,0.4-0.2,0.8-0.4,1.1C191.4,65.5,191,65.7,190.6,65.7z"/>
				</g>
			</g>
			<g>
				<g>
					<rect x="170.7" y="67.5" fill="#E5E2D1" width="40.2" height="71.1"/>
				</g>
				<g>
					<path fill="#43423C" d="M170.7,139.6c-0.3,0-0.5-0.1-0.7-0.3s-0.3-0.4-0.3-0.7l0-71.1c0-0.6,0.4-1,1-1l40.2,0
						c0.3,0,0.5,0.1,0.7,0.3s0.3,0.4,0.3,0.7l0,71.1c0,0.6-0.4,1-1,1L170.7,139.6z M171.7,68.5l0,69.1l38.2,0l0-69.1L171.7,68.5z"/>
				</g>
			</g>
			<g>
				<g>
					<rect x="173.6" y="100" fill="#43423C" width="34.5" height="3.8"/>
				</g>
			</g>
			<g>
				<g>
					<rect x="173.7" y="70.1" fill="#43423C" width="15.5" height="6.2"/>
				</g>
			</g>
			<g>
				<g>
					<rect x="191.8" y="70.1" fill="#F9B233" width="16" height="6.2"/>
				</g>
			</g>
			<g>
				<g>
					<rect x="173.4" y="120" fill="#43423C" width="34.7" height="5.6"/>
				</g>
			</g>
			<g>
				<g>
					<rect x="173.5" y="127.7" fill="#F47757" width="34.4" height="8.4"/>
				</g>
				<g>
					<path fill="#43423C" d="M207.9,137.1h-34.4c-0.6,0-1-0.4-1-1v-8.4c0-0.6,0.4-1,1-1h34.4c0.6,0,1,0.4,1,1v8.4
						C208.9,136.7,208.5,137.1,207.9,137.1z M174.5,135.1h32.4v-6.4h-32.4V135.1z"/>
				</g>
			</g>
			<g>
				<g>
					<rect x="173.8" y="78.5" fill="#6CAEAB" width="33.9" height="19.5"/>
				</g>
				<g>
					<path fill="#43423C" d="M207.8,99h-33.9c-0.6,0-1-0.4-1-1V78.5c0-0.6,0.4-1,1-1h33.9c0.6,0,1,0.4,1,1V98
						C208.8,98.5,208.3,99,207.8,99z M174.8,97h31.9V79.5h-31.9V97z"/>
				</g>
			</g>
			<g>
				<g>
					<rect x="174" y="105.9" fill="#F9B233" width="7.3" height="11.9"/>
				</g>
				<g>
					<path fill="#43423C" d="M181.3,118.9H174c-0.6,0-1-0.4-1-1v-11.9c0-0.6,0.4-1,1-1h7.3c0.6,0,1,0.4,1,1v11.9
						C182.3,118.4,181.9,118.9,181.3,118.9z M175,116.9h5.3v-9.9H175V116.9z"/>
				</g>
			</g>
			<g>
				<g>
					<rect x="184.1" y="105.9" fill="#F47757" width="23.7" height="11.9"/>
				</g>
				<g>
					<path fill="#43423C" d="M207.8,118.9h-23.7c-0.6,0-1-0.4-1-1v-11.9c0-0.6,0.4-1,1-1h23.7c0.6,0,1,0.4,1,1v11.9
						C208.8,118.4,208.4,118.9,207.8,118.9z M185.1,116.9h21.7v-9.9h-21.7V116.9z"/>
				</g>
			</g>
			<g>
				<g>
					
						<rect x="186.2" y="75.6" transform="matrix(0.7644 0.6448 -0.6448 0.7644 100.9678 -99.9111)" fill="#43423C" width="2" height="25.3"/>
				</g>
			</g>
			<g>
				<g>
					
						<rect x="190.1" y="75.7" transform="matrix(0.7644 0.6448 -0.6448 0.7644 101.9598 -102.4283)" fill="#43423C" width="2" height="25.3"/>
				</g>
			</g>
		</g>
	</g>
</g>
</svg>
