<?xml version="1.0" encoding="utf-8"?>
<!-- Generator: Adobe Illustrator 17.1.0, SVG Export Plug-In . SVG Version: 6.00 Build 0)  -->
<!DOCTYPE svg PUBLIC "-//W3C//DTD SVG 1.1//EN" "http://www.w3.org/Graphics/SVG/1.1/DTD/svg11.dtd">
<svg version="1.1" id="process" xmlns="http://www.w3.org/2000/svg" xmlns:xlink="http://www.w3.org/1999/xlink" x="0px" y="0px"
	 viewBox="0 0 957.7 149" enable-background="new 0 0 957.7 149" xml:space="preserve">
<g>
	<g>
		<path fill="#8EEFEF" d="M957.7,78.9H263.4c-5.6,0-11-1.1-16.2-3.3c-3.1-1.3-6.2-3.3-9.1-5.8l-0.1-0.1l-53.7-50.4
			c-14.8-13.9-37.8-13.7-52.4,0.4L79.5,70.4l-0.1,0.1c-3,2.5-6.3,4.4-9.6,5.7C65,78,60,78.9,54.9,78.9H0v-9h54.9
			c4,0,7.9-0.7,11.6-2.1c2.4-0.9,4.7-2.3,7-4.1l52.2-50.4c18.1-17.4,46.5-17.7,64.8-0.5l53.6,50.3c2.1,1.9,4.4,3.3,6.6,4.3
			c4,1.7,8.3,2.6,12.6,2.6h694.3V78.9z"/>
	</g>
	<g>
		<path fill="#43423C" d="M957.7,92.9H377.9c-5.9,0-11.6-1.2-16.9-3.6c-1.2-0.5-2.4-1.2-3.7-2l-0.2-0.1c-0.6-0.3-1.1-0.7-1.7-1
			c-7.6-4.3-46.6-26.3-72-39.9c-11.7-6.3-26-6-37.5,0.7l-67.2,39.6c-1.6,1.1-3.2,2-4.7,2.6c-5.4,2.4-11.1,3.7-17,3.7H0v-9h157.1
			c4.6,0,9.1-1,13.3-2.9c1.1-0.5,2.3-1.2,3.5-2l0.2-0.1l67.3-39.6c14.1-8.3,31.9-8.7,46.3-0.9c25.5,13.7,64.6,35.7,72.1,40
			c0.7,0.4,1.3,0.8,2,1.2l0.2,0.1c0.9,0.6,1.8,1,2.6,1.4c4.2,1.9,8.6,2.8,13.2,2.8h579.8V92.9z"/>
	</g>
	<g>
		<path fill="#F9B233" d="M957.7,106.9H508.4c-8.3,0-16.2-2.4-23.1-7.1c-0.6-0.4-1.2-0.8-1.8-1.1l-66.6-38.8
			c-0.7-0.4-1.4-0.9-2.2-1.4c-8.5-5.7-19.6-5.8-28.2-0.3c-0.7,0.5-1.4,0.9-2.1,1.3l-71.6,39.9c-0.6,0.3-1.2,0.7-1.7,1.1
			c-6.7,4.3-14.4,6.5-22.3,6.5H0v-9h288.8c6.2,0,12.2-1.8,17.5-5.1c0.6-0.4,1.4-0.9,2.2-1.3l71.6-39.9c0.6-0.3,1.1-0.6,1.6-1
			c11.6-7.4,26.6-7.2,38,0.4c0.6,0.4,1.2,0.8,1.7,1.1L488.1,91c0.8,0.5,1.6,1,2.3,1.4c5.4,3.6,11.6,5.5,18.1,5.5h449.3V106.9z"/>
	</g>
	<g>
		<path fill="#62C48A" d="M957.7,121H658.6c-10,0-19.5-2.7-27.6-7.9c-1.7-1.1-3.3-2.3-5-3.9l-79.7-72.1c-2.4-2.2-5-3.9-7.6-5.1
			c-9.2-4.2-20.1-4.2-29.2,0.1c-2.6,1.2-5.2,3-7.6,5.2L423.9,109c-1.7,1.6-3.3,2.8-5,3.9c-8.1,5.3-17.7,8-27.8,8H0v-9h391.1
			c8.2,0,16.4-2.3,23-6.6c1.2-0.8,2.5-1.8,3.8-3l78.1-71.8c3.1-2.8,6.4-5.1,9.9-6.7c11.5-5.4,25.2-5.4,36.7-0.1
			c3.5,1.6,6.8,3.8,9.9,6.6l79.7,72.1c1.3,1.2,2.6,2.2,3.8,2.9c6.5,4.2,14.6,6.5,22.8,6.5h299.1V121z"/>
	</g>
	<g>
		<path fill="#C0BEB1" d="M957.7,135h-161c-17.5,0-34.5-6.3-47.8-17.8l-45.6-39.4c-21.1-18.2-52.2-18.7-73.9-1.2l-52.2,42.1
			c-13,10.5-29.3,16.2-45.9,16.2H0v-9h531.2c14.6,0,28.9-5.1,40.3-14.2l52.2-42.1c25.1-20.3,61-19.7,85.5,1.4l45.6,39.4
			c11.6,10.1,26.5,15.6,41.9,15.6h161V135z"/>
	</g>
	<g>
		<path fill="#F47757" d="M957.7,149h-42.6c-11.6,0-22.8-4.9-30.6-13.6c-1.6-1.8-3.1-3.8-4.4-6.1l-47.9-83.8c-1.6-2.7-3.4-5-5.4-6.7
			c-8.9-7.6-21.9-8.3-31.5-1.6c-2.6,1.8-4.8,4.2-6.8,7.2l-56,86.8c-1.3,2-2.6,3.6-3.9,5c-7.7,8.1-18.6,12.7-29.8,12.7H0v-9h698.9
			c8.7,0,17.2-3.6,23.3-9.9c1-1,1.9-2.2,2.8-3.7l56-86.8c2.6-4,5.7-7.3,9.2-9.7c13-9,30.5-8.1,42.5,2.1c2.8,2.4,5.3,5.5,7.3,9.1
			l47.9,83.8c1,1.7,2.1,3.2,3.2,4.5c6.1,6.7,14.8,10.6,23.9,10.6h42.6V149z"/>
	</g>
</g>
</svg>
